<?xml version="1.0" encoding="UTF-8"?>
<svg id="Layer_1" xmlns="http://www.w3.org/2000/svg" version="1.1" viewBox="0 0 1417.3 155.9">
  <!-- Generator: Adobe Illustrator 29.8.3, SVG Export Plug-In . SVG Version: 2.1.1 Build 3)  -->
  <defs>
    <style>
      .st0 {
        fill: #6889ad;
      }
    </style>
  </defs>
  <path class="st0" d="M123.5,14.8v108.5h-20.9v-49h-50.6v49h-20.9V14.8h20.9v44.2h50.6V14.8h20.9Z"/>
  <path class="st0" d="M170.5,126.5c-7,0-12.7-2.4-17.3-7.1-4.5-4.7-6.8-10.6-6.8-17.6,0-11.7,4.4-23.3,13.3-34.7,8.8-11.4,19.4-17.1,31.8-17.1s14.8,2.8,19.8,8.4c5.1,5.6,7.6,12.3,7.6,20,0,11.8-5.2,22.8-15.7,32.9s-21.4,15.2-32.7,15.2ZM159.9,100c0,4.6,1.1,8.4,3.2,11.3,2.2,2.9,5,4.4,8.6,4.4,7.6,0,15.2-3.7,22.8-11.2s11.5-15.7,11.5-24.8-1.5-10.1-4.4-13.6c-2.9-3.5-6.9-5.2-11.8-5.2-8.2,0-15.2,4.5-21.1,13.5-5.9,9-8.8,17.6-8.8,25.7Z"/>
  <path class="st0" d="M296.7,123.1h-67.8v-2c5.9,0,9.7-1.2,11.4-3.6s2.5-5.5,2.5-9.4V37.5c0-3.6-.8-6.7-2.3-9.2-1.5-2.5-5.1-3.8-10.7-3.8h-.9v-2h58.7c7.8,0,14.3.8,19.4,2.4,2.6.9,5.3,2.2,8.2,3.9,2.9,1.7,5.5,4.1,7.8,7.1,2.4,3.1,3.6,6.7,3.6,10.9s-1.7,9.6-5.2,12.9-7.3,5.6-11.5,7-8.3,2.4-12.2,3.1v.3c3.2.3,6.8.8,10.8,1.6,4,.8,7.9,2.1,11.6,4,3.7,1.8,6.9,4.5,9.6,8,2.6,3.5,4,7.9,4,13.1s-1.6,10.3-4.8,14.3c-3.2,4-7.4,7.1-12.7,9.3-3.1,1.3-6.1,2.1-9,2.4-2.9.3-6.4.4-10.5.4ZM275.7,28.1h-7.8v40.4h7.8c5.8,0,11.4-1.2,16.8-3.7,5.4-2.5,8.1-8.1,8.1-17s-2.3-11.6-6.9-15.4c-1.6-1.4-3.7-2.5-6.3-3.2-2.6-.8-6.5-1.1-11.8-1.1ZM276.5,74.1h-8.6v32.2c0,4.9,1.3,8,4.1,9.3,2.7,1.3,6.1,1.9,10.3,1.9s5.3-.2,7.8-.5c2.4-.3,5-1.1,7.6-2.4,2.6-1.3,4.8-3.4,6.6-6.3,1.8-2.9,2.7-6.9,2.7-11.9s-1.3-10-4-13.2c-2.7-3.3-6.3-5.6-10.8-7-4.5-1.4-9.7-2-15.6-2Z"/>
  <path class="st0" d="M348.1,123.1c.3-4.5.6-12.7.6-20.4V23.8h23.8v39h.3c4.5-5.9,12.5-9.7,23.2-9.7,18.3,0,31.8,13.6,31.6,34.5,0,24.6-17.5,36.9-35.1,36.9s-17.5-2.9-23-11h-.3l-.9,9.5h-20.2ZM372.5,94c0,1.4.2,2.7.5,3.8,1.6,5.7,7,10.1,13.9,10.1,10.2,0,16.4-7,16.4-19.3s-5.3-19-16.4-19-12.4,4.3-13.9,10.5c-.3,1.3-.5,2.5-.5,3.9v10.1Z"/>
  <path class="st0" d="M571.9,59.1l-.8,8c-6.8-2-10.8-3-12-2.9-1.9,0-3.4,2.9-4.6,8.5-.9,4.1-1.9,12.1-3.1,23.9-1.3,12.4-2.7,20.9-4.2,25.5-3.2,9.4-7.6,16.1-13.3,20-7.3,5-18.8,7.5-34.3,7.5-23.8,0-40.9-3.2-51.4-9.5-3.3-2-6.1-5.1-8.5-9.3-2.3-4.1-3.4-7.9-3.4-11.4s2.7-8.2,8-10.7c5-2.3,12-3.5,20.8-3.5s16.7,1.5,22.8,4.5c5.6,2.7,8.4,5.8,8.4,9.2,0,6.9-5.4,11.8-16.3,14.5-.9.2-4.8.9-11.6,2.1-3.7.7-5.6,1.5-5.6,2.3,0,2,5.6,2.9,16.9,2.9s14.5-.8,18-2.5c6-2.8,10.6-7.3,13.9-13.5,2.4-4.4,3.6-8.1,3.6-11.2-.2-1.1-8.8-7.6-26.1-19.5-17.6-12.2-29.3-19.6-34.9-22.3-1.9,0-7.7,2.3-17.3,6.9-.8.4-1.2.2-1.2-.5,0-1.9,0-4.4,0-7.4,0-3,0-5.1,0-6v-3.9c25.3-3.7,44.7-8.7,58.2-15.1,1.3,2,3.3,5.1,6,9.2-2.5.6-6.8,1.3-12.8,2,0,4.9,5,11.7,14.9,20.3,8.4,7.2,15.5,12.2,21.4,14.8,2.8-3.7,6.4-9.9,10.9-18.6,4.3-8.5,6.5-13.5,6.5-15.1-10.7,0-18.5,0-23.3-.3.8-2.9,2.2-7.5,4.2-13.9,14.9.5,31.6,5.4,50.1,14.7Z"/>
  <path class="st0" d="M616.6,123.1v-14.7h7.6V39.5h-7.6v-14.7h35.4c12.9,0,23,2.8,30.2,8.3,7.2,5.6,10.8,13.3,10.8,23.2,0,20.4-14.2,30.7-42.6,30.7v21.4h9.2v14.7h-43ZM650.4,39.5v32.4c5.8,0,9.7-1.4,11.8-4.3,2.1-2.9,3.1-6.9,3.1-12,0-10.7-5-16.1-14.9-16.1Z"/>
  <path class="st0" d="M711.5,72.2c0-11.7-.2-16.8-.2-19h8.2c.2,2.2.3,6.7.3,15.7,4.8-10.5,15.5-16.8,29-17.3v7.6c-17.3,1-29,11-29,27.7v36.4h-8.3v-50.9Z"/>
  <path class="st0" d="M789.2,28.8c9.6,0,17.6,3.8,24,11.5,6.4,7.7,9.6,19.1,9.6,34.2s-3.3,28.6-9.8,37c-6.5,8.4-14.6,12.5-24.4,12.5s-12.6-1.9-17.5-5.7c-4.9-3.8-8.8-8.9-11.4-15.3s-4-15.1-4-26.2c0-15.8,3.1-27.7,9.2-35.9,6.1-8.1,14.2-12.2,24.3-12.2ZM794.7,46c0-5.6-1.8-8.5-5.5-8.5s-6,3.5-6,10.4v56.8c0,6.9,1.8,10.3,5.4,10.3s6-3.4,6-10.3v-58.7Z"/>
  <path class="st0" d="M878.6,83.7c0,13.1-3.2,23.2-9.6,30.4-6.4,7.2-15.3,10.8-26.7,10.8s-9.7-.7-13.5-2.1v-15.8c3.5,2.3,7.8,3.5,12.9,3.5,12.3,0,18.5-9,18.5-27V17.3h18.3v66.4Z"/>
  <path class="st0" d="M972.8,68.9v16.9c0,1.9-.6,3.5-1.9,4.9-1.3,1.4-2.8,2.1-4.5,2.1h-45.4v4.1c0,2.4.9,4.4,2.8,6.1l3.7,3.4c2,1.7,4,2.6,5.8,2.6h33c1.7,0,3.2.7,4.5,2,1.3,1.4,1.9,3,1.9,5s-.7,3.5-1.9,4.9c-1.3,1.4-2.8,2.1-4.5,2.1h-33.9c-2.2,0-4.6-.5-7.1-1.5-2.5-1-4.3-2.1-5.5-3.2l-5.7-5.5c-1.8-1.6-3.3-3.7-4.5-6.5-1.2-2.8-1.8-5.3-1.8-7.7v-32.1c0-1.8.6-4.3,1.9-7.4,1.3-3.1,2.9-5.5,4.9-7.3l5.3-4.6c3.5-3.1,7.4-4.7,11.7-4.7h18c4.5,0,8.8,2.1,12.8,6.2l4.8,5c3.5,3.4,5.2,8.5,5.2,15.2ZM921.1,67.8v10.9h39v-9.8c0-2.6-.7-4.6-2.2-6l-3.7-3.6c-1.9-1.7-3.7-2.6-5.2-2.6h-16.1c-2,0-3.8.8-5.4,2.3l-3.7,3.4c-1.7,1.4-2.5,3.2-2.5,5.4Z"/>
  <path class="st0" d="M1020.2,93.1v18.3c0,1.2.7,2.2,2,2.9,1,.5,1.5,1.4,1.5,2.7v3.6c0,1.7-1,2.5-2.9,2.5h-27.7c-1.8,0-2.8-1-2.8-3.1v-3.2c0-.8.7-1.7,2.2-2.7,1.2-.9,1.9-1.5,2-1.8.1-.4.2-.9.2-1.7V28.8c0-2.9-1-5-3-6.3-.7-.5-1-.9-1.1-1.2,0-.4-.1-1.3-.1-2.7,0-3,0-4.7.2-5.1.1-.5.9-.7,2.3-.7h24.2c1.3,0,2.1.2,2.4.5s.5,1.2.5,2.5v59.2l14-28.7c.9-1.8,1.4-3,1.4-3.7,0-1.5-1.2-2.7-3.6-3.5-1.1-.4-1.8-.8-2.1-1.4-.4-.5-.5-1.7-.5-3.3s.2-3.4.7-3.9c.5-.5,1.3-.7,2.6-.7h21.1c1.2.1,1.8,1.3,1.8,3.6s-.2,3.4-.6,4.2c-.4.7-1.4,1.4-2.9,2.1-2.3,1-3.9,2.3-4.8,4l-5.3,10.1,16.3,56.2c.5,1.7,1.5,3,3.2,4,1.1.6,1.7,1.6,1.7,2.9v3.6c0,1.7-1,2.5-3.1,2.5h-20.6c-2.6,0-4.3-1.5-5-4.5l-8.7-35-5.4,9.5Z"/>
  <path class="st0" d="M1154.6,43.1h-31.3v80h-24.8V43.1h-31.1v-18h87.1v18Z"/>
  <path class="st0" d="M1222.9,66.1v20.8h-20.3c-2.8,0-4.7.4-5.8,1.1-1.1.7-1.7,2-1.7,3.7s.6,3.2,1.8,3.9c1.2.6,3.6.9,7.2.9h20.9v26.6h-24.4c-11.5,0-20.2-2.4-26.3-7.3-6.1-4.9-9.1-12-9.1-21.2v-36.5c0-8.9,2.9-15.8,8.6-20.8,5.7-4.9,13.8-7.4,24.2-7.4h27v26.8h-19.8c-5.3,0-8,1.5-8,4.6s.6,3.1,1.9,3.8c1.3.7,3.5,1.1,6.8,1.1h17.1Z"/>
  <path class="st0" d="M1238.3,123.1v-12.7h54.1v12.7h-54.1ZM1241.4,63.4v-12.7h27.1l1.5,12.7h-28.6ZM1256.4,123.1V50.7h13.1l3.1,20.8v51.6h-16.2ZM1272.6,91.9l-4.7-22.7h6.3c.9-13.3,8.4-19.9,22.3-19.9s14.4,2.1,18.2,6.4c3.8,4.3,5.7,11.2,5.7,20.8h-16c0-5.3-.9-9.1-2.6-11.4-1.8-2.3-4.6-3.5-8.5-3.5-6.9,0-12,2.6-15.4,7.9-3.4,5.3-5.1,12.7-5.1,22.4Z"/>
</svg>