<?xml version="1.0" encoding="UTF-8"?>
<svg id="Layer_1" xmlns="http://www.w3.org/2000/svg" version="1.1" viewBox="0 0 907.1 155.9">
  <!-- Generator: Adobe Illustrator 29.8.3, SVG Export Plug-In . SVG Version: 2.1.1 Build 3)  -->
  <defs>
    <style>
      .st0 {
        fill: #a968ab;
      }
    </style>
  </defs>
  <path class="st0" d="M9.3,136.6V43.3h36.1c10.2,0,17.6,2.1,22.1,6.4,4.5,4.3,6.8,10.5,6.8,18.6s-1.3,11.7-3.9,16.3c-2.6,4.6-6.6,8.2-12,10.9-5.4,2.7-13.1,4-23.1,4h-7.2v37H9.3ZM28,87.1h4.6c4.1,0,8-.6,11.5-1.9,3.5-1.3,6.1-3.5,7.7-6.7,1.6-3.2,2.5-6.5,2.5-10s-.5-4.6-1.4-6.6c-.9-2-2.5-3.5-4.7-4.6-2.2-1-6.6-1.6-13.2-1.6h-6.9v31.4Z"/>
  <path class="st0" d="M84.1,118.9c0-3.9.7-8.8,2-14.7,1.3-5.9,3.6-10.8,6.8-14.8,3.2-4,7.5-7.4,13-10.2,5.5-2.8,11.1-4.3,16.9-4.3s10.8,1.7,14.6,5.1c3.7,3.4,5.6,8.5,5.6,15.3s-1.2,12.5-3.5,18.9c-2.3,6.4-5.4,11.2-9.2,14.1-3.8,3-7.9,5.5-12.1,7.7-4.2,2.1-9,3.2-14.4,3.2s-9.1-1-12-3c-2.9-2-4.9-4.5-6-7.6s-1.7-6.4-1.7-9.8ZM99,118.4c0,5.1,1,8.8,2.9,11.1,1.9,2.3,4.7,3.5,8.3,3.5s4.7-.7,6.6-2.1c2-1.4,3.8-3.9,5.4-7.5,1.7-3.6,3-8.1,4-13.4,1-5.3,1.5-10.2,1.5-14.5s-1.1-9.3-3.2-11.5c-2.1-2.2-4.7-3.3-7.8-3.3s-6.1,1.2-8.5,3.7c-2.5,2.5-4.6,7.3-6.5,14.5-1.9,7.2-2.8,13.7-2.8,19.4Z"/>
  <path class="st0" d="M203.1,75.1c-2.5-1.7-5.5-2.6-9-2.6s-8.3,2.1-11,6.3c-2.7,4.2-4.1,10.1-4.1,17.5v40.2h-20.3V53h20.3v15.7h.3c3.4-11.4,9.5-17.2,18.3-17.2s4.2.3,5.5,1v22.6Z"/>
  <path class="st0" d="M249.7,73c5.8-.3,11.3-.7,16.4-1.2,5.1-.4,9.3-.6,12.7-.6s7,.3,8.1.9c1.1.6,1.7,1.6,1.7,3.1,0,3.4-3.2,5.2-9.5,5.5-8.2.4-15.7.9-22.5,1.6-6.9.7-10.6,1.2-11.1,1.7-.5.4-2.2,5.4-5.1,15-2.9,9.6-4.3,15.8-4.3,18.6,0,4.6.8,7.7,2.4,9.2,1.6,1.5,4.1,2.3,7.3,2.3,4.8,0,11.6-2.7,20.2-8.1,3.3-2.2,5.9-3.3,7.7-3.3s3.6,1,3.6,2.9c0,3-3.9,6.9-11.7,11.7-7.8,4.8-15.8,7.2-23.9,7.2-13.6,0-20.4-6-20.4-18s1.4-11,4.2-20.1c2.8-9,4.1-14.4,4.1-16.3s-.7-.9-2-.9l-8.8.6c-7.2,0-10.8-2.1-10.8-6.4s1.7-3.7,5-3.7h17.4c1.2,0,2.2-.4,3.1-1.2.9-.8,2.2-3.5,4-8,1.7-4.6,3.3-9.1,4.6-13.5,1.4-4.4,4-6.6,7.9-6.6s4.3.6,5.7,1.9c1.4,1.3,2,2.4,2,3.5s-1,3.6-3,9l-4.9,13.2Z"/>
  <path class="st0" d="M290.2,89.5v-7.9h32.7v7.9h-32.7ZM297.1,136.6v-62.4c0-4.9,1.3-8.5,3.8-10.9,2.6-2.4,6.5-3.6,11.8-3.6h10.1v8.7h-9.2c-1.9,0-3.3.5-4.3,1.5-.9,1-1.4,2.4-1.4,4.2v62.5h-11Z"/>
  <path class="st0" d="M414.8,85.1c0,4.6-.5,10.2-1.4,16.7-1.7,11.6-5.4,21.3-11.1,29-7.4,10-17.2,15-29.5,15s-21.3-4.2-30.3-12.5c-9.5-8.8-14.3-19.5-14.3-31.8s3.6-19,10.7-27.7c8.1-9.9,18.6-15.8,31.6-17.8,4.2-.6,9-.9,14.4-.9,10.9,0,18.7,2.6,23.5,7.8,4.3,4.7,6.4,12.1,6.4,22.1ZM404,95.8c0-3.8-2.7-6.8-8.1-8.9-4.9-1.9-11.1-2.9-18.8-2.9s-16.6,2.7-24.5,8.1c-7.5,5.1-11.2,9.9-11.2,14.5s2.4,5.8,7.2,7.9c4.8,2.1,10.6,3.2,17.4,3.2s17.1-2.4,25.4-7.1c8.3-4.8,12.5-9.7,12.5-14.7Z"/>
  <path class="st0" d="M421.7,135.6h1.3c2.3,0,4.3-.9,6-2.7,1.7-1.8,2.6-4.3,2.6-7.5V55.3c0-3.9-1-6.6-2.9-8.1-2-1.5-4.3-2.3-7-2.4v-1.1h29.7v1.1c-2.6,0-4.9.9-6.9,2.3-2,1.5-3,4.2-3,8.1v67.7c0,4,1,6.8,3,8.4,2,1.6,5.3,2.3,9.9,2.3h8c3.5,0,6.3-.4,8.3-1.3s3.7-2.1,4.9-3.8c1.2-1.7,2.5-4.2,3.7-7.3h1.1l-3.5,15.2h-55.2v-1Z"/>
  <path class="st0" d="M499.1,58c0,3.9-2.3,6.4-6.1,6.4s-5.7-2.5-5.7-6.4c0-3.9,2.5-6.5,5.8-6.5s5.9,2.6,5.9,6.5ZM488.3,136.6v-62.4h9.9v62.4h-9.9Z"/>
  <path class="st0" d="M546.2,59c10,0,18.5,3.9,25.6,11.6,7.1,7.7,10.7,17,10.7,27.9s-3.6,20.3-10.8,28c-7.2,7.7-15.9,11.6-26.1,11.6s-18.9-3.9-26.2-11.6c-7.2-7.7-10.9-17.1-10.9-28s3.6-20.5,10.9-28.1c7.2-7.6,16.2-11.4,26.8-11.4ZM545.5,87.1c-2.8,0-5.2,1.1-7.2,3.3s-3,4.9-3,8.1,1,5.8,3,8.1c2,2.2,4.4,3.4,7.2,3.4s5.2-1.1,7.2-3.4c2-2.2,3-4.9,3-8.1s-1-5.9-3-8.1-4.4-3.3-7.3-3.3Z"/>
  <path class="st0" d="M658.6,57.9l3.5,16.2c0,.5.1,1,.1,1.3,0,1.1-1.1,1.6-3.4,1.6s-2.6-.2-3.3-.5c-.7-.4-1.5-1.3-2.4-2.8-1-1.8-2.5-3.9-4.6-6.4-2.1-2.5-3.9-3.7-5.5-3.7s-1.2.3-1.7.8c-.5.5-.7,1.2-.7,1.9,0,2,3.1,7.6,9.2,16.9,5.3,8.1,8.9,14.4,10.8,19,1.9,4.6,2.8,9.8,2.8,15.6s-1.4,10.9-4.3,14.3c-2.9,3.4-6.2,5.1-10.1,5.1s-5-.8-7.7-2.5c-1.5-.9-2.5-1.3-3-1.3s-.9.4-1,1.3c-.2,1.1-.4,1.7-.8,2-.3.3-1.4.4-3.3.4s-2.4-.2-2.8-.6c-.4-.4-.7-1.1-.9-2.1l-3.1-16.3c-.1-.8-.2-1.3-.2-1.5,0-1.1,1.4-1.6,4.2-1.6s2.5.2,3.1.5c.6.4,1.3,1.4,2.2,3,3.3,6.4,6.4,9.5,9.3,9.5s2.8-1.1,2.8-3.2-.7-4.2-2.1-7c-1.4-2.8-4.1-7.3-8.2-13.6-4.3-6.7-7.4-12.3-9.3-16.9-1.9-4.5-2.9-9.1-2.9-13.6s1.4-10.8,4.3-13.9c2.9-3,6.3-4.6,10.4-4.6s4.6.7,7.3,2.1c1.4.7,2.3,1.1,2.8,1.1s1.1-.4,1.2-1.2c.2-.9.5-1.4,1-1.6.5-.2,1.6-.3,3.2-.3s1.7.1,2,.3c.3.2.6.8.9,1.8Z"/>
  <path class="st0" d="M712.5,58v7.9h-13.2v62.8h13.2v7.9h-42.3v-7.9h13.2v-62.8h-13.2v-7.9h42.3Z"/>
  <path class="st0" d="M722,71.2v-6.1h47.1v6.1h-47.1ZM738.8,102.9v-59.3h4.9v59.3h-4.9ZM758,137.9c-6.4,0-11.3-2.4-14.5-7.2-3.2-4.8-4.8-12.1-4.8-21.7v-11.5h4.9v11.5c0,7.6,1.3,13.3,3.8,17.1,2.6,3.8,6.4,5.7,11.6,5.7s4.1-.1,6-.4c1.9-.2,3.7-.6,5.5-1l.6,6c-2.2.5-4.4.9-6.5,1.2-2.1.3-4.3.4-6.7.4Z"/>
  <path class="st0" d="M858.5,116c0,1.9-.4,5.4-1.2,10.4-.9,5.5-1.6,8.8-2.3,9.9-.6.8-1.4,1.3-2.3,1.3s-1.1,0-2.1-.2c-3.5-.4-13.6-.7-30.3-.7s-9.1,0-16.3,0c-7.2,0-12.6,0-16.2,0s-2.3-.6-2.3-1.9c0-4.9.3-12.4.9-22.3.6-9.9.9-17.3.9-22.3s-.3-14.4-.9-28.1c-.1-3.5-.4-8.8-.8-15.8v-.9c-.2-1,.4-1.5,1.7-1.5,3.5,0,8.8,0,15.8.3,7,.2,12.3.3,15.8.3s8.7,0,15.7-.3c7-.2,12.2-.3,15.7-.3s3.9.9,4.3,2.6c.2,1,.6,4.1,1.1,9.2.5,5.1.7,8.3.7,9.4s-.5,1.4-1.4,1.4-.8,0-1.5,0c-12.6-1-24-1.5-34-1.5s-4.1.6-4.6,1.7c-.2.5-.4,2.2-.4,5.1s.5,5,1.4,6c.8.8,2.3,1.3,4.6,1.3s1.4,0,2.8,0c1.4,0,2.5,0,3.4,0,6,0,12-.2,18.2-.5.5,0,1.8-.2,3.9-.3,1.6-.2,2.9-.3,3.8-.3s1.7.5,1.7,1.5c0-.9-.4,2.4-1.3,10.1-.4,3.5-.6,7.1-.6,10.6s-.7,1.3-2.1,1.3l-6.4-.7c-2.7-.3-8.9-.4-18.5-.4h-7.5c-1.9,0-3.1.4-3.4,1.3,0,.2,0,1.6,0,4.1s.2,5.5.7,6.5c.8,1.7,3.8,2.7,9.1,3,0,0,3.4,0,10.4,0s6.3-.2,11.2-.6c5-.4,8.7-.6,11.1-.6s1.6.8,1.6,2.4Z"/>
</svg>