<?xml version="1.0" encoding="UTF-8"?>
<svg id="Layer_1" xmlns="http://www.w3.org/2000/svg" version="1.1" viewBox="0 0 198.4 127.6">
  <!-- Generator: Adobe Illustrator 29.8.3, SVG Export Plug-In . SVG Version: 2.1.1 Build 3)  -->
  <defs>
    <style>
      .st0 {
        fill: #dea47c;
      }

      .st1 {
        stroke-dasharray: 11.5 11.5;
      }

      .st1, .st2 {
        fill: none;
        stroke: #dea47c;
        stroke-miterlimit: 10;
        stroke-width: 4px;
      }
    </style>
  </defs>
  <g>
    <line class="st0" x1="17.8" y1="73.2" x2="180" y2="75.2"/>
    <g>
      <line class="st2" x1="17.8" y1="73.2" x2="23.8" y2="73.3"/>
      <line class="st1" x1="35.3" y1="73.4" x2="144.4" y2="74.8"/>
      <line class="st2" x1="150.1" y1="74.8" x2="156.1" y2="74.9"/>
      <polygon class="st0" points="144.7 89.6 151.2 74.8 145.1 59.9 180 75.2 144.7 89.6"/>
    </g>
  </g>
  <g>
    <path class="st0" d="M47.8,61.9c-1,0-1.9,0-2.6,0-.7,0-1.4-.2-2-.3l.3-2.4c.9.1,1.7.2,2.4.3.7,0,1.3.1,1.9.1,1.4,0,2.4-.1,3-.4.6-.3.9-.7.9-1.3s-.1-.7-.3-.9c-.2-.2-.5-.4-1-.5l-3.1-.8c-1.3-.3-2.3-.8-2.9-1.3-.6-.5-.9-1.3-.9-2.3,0-1.5.6-2.5,1.7-3.2s3-1,5.5-1,1.3,0,1.8,0c.6,0,1.1.1,1.7.2l-.3,2.3c-.7,0-1.3-.1-1.8-.1-.5,0-1,0-1.5,0-1.5,0-2.6.1-3.3.4-.7.3-1,.7-1,1.3s.1.7.4.8.7.3,1.3.5l2.5.6c1.4.3,2.5.8,3.1,1.4.7.6,1,1.4,1,2.5s-.5,2.5-1.6,3.2c-1.1.7-2.8,1-5.1,1Z"/>
    <path class="st0" d="M65.4,61.9c-2.3,0-4.1-.6-5.3-1.8s-1.9-2.9-1.9-5.2.6-3.9,1.8-5.1c1.2-1.2,2.9-1.8,5.1-1.8s2.4.2,3.4.7c.9.5,1.6,1.2,2,2.1l-2.1,1.6c-.4-.6-.9-1.1-1.5-1.4-.6-.3-1.2-.5-1.9-.5-1.3,0-2.3.4-3,1.2-.7.8-1.1,1.9-1.1,3.3s.4,2.7,1.2,3.5c.8.8,2,1.2,3.5,1.2s1.3,0,1.9,0c.6,0,1.2-.1,1.8-.2l.3,2.4c-.7.2-1.4.3-2.2.3-.7,0-1.5,0-2.2,0Z"/>
    <path class="st0" d="M72.7,61.6v-2.4h9v2.4h-9ZM73.2,50.5v-2.4h4.5l.3,2.4h-4.8ZM75.7,61.6v-13.5h2.2l.5,3.9v9.6h-2.7ZM78.4,55.8l-.8-4.2h1c.2-2.5,1.4-3.7,3.7-3.7s2.4.4,3,1.2c.6.8.9,2.1.9,3.9h-2.7c0-1-.1-1.7-.4-2.1-.3-.4-.8-.6-1.4-.6-1.1,0-2,.5-2.6,1.5-.6,1-.8,2.4-.8,4.2Z"/>
    <path class="st0" d="M94.6,61.9c-1.9,0-3.3-.6-4.3-1.8s-1.6-2.9-1.6-5.2.5-4,1.6-5.2,2.5-1.8,4.3-1.8,3.3.6,4.4,1.8c1,1.2,1.5,2.9,1.5,5.2s-.5,3.9-1.5,5.2c-1,1.2-2.5,1.8-4.4,1.8ZM94.6,59.5c1,0,1.8-.4,2.3-1.2s.8-1.9.8-3.4-.3-2.6-.8-3.4c-.5-.8-1.3-1.2-2.3-1.2s-1.8.4-2.3,1.2c-.5.8-.8,1.9-.8,3.4s.3,2.6.8,3.4,1.3,1.2,2.3,1.2Z"/>
    <path class="st0" d="M103.5,44.9v-2.4h4.2v2.4h-4.2ZM111.9,61.9c-1.6,0-2.7-.4-3.4-1.3s-1-2.2-1-4.1v-14h2.7v13.9c0,.7,0,1.3.2,1.7s.4.8.8,1c.4.2,1,.3,1.7.3s1.6-.2,2.7-.5l.3,2.4c-.7.2-1.3.3-2,.4-.6,0-1.3.1-2,.1Z"/>
    <path class="st0" d="M118.7,44.9v-2.4h4.2v2.4h-4.2ZM127.1,61.9c-1.6,0-2.7-.4-3.4-1.3s-1-2.2-1-4.1v-14h2.7v13.9c0,.7,0,1.3.2,1.7s.4.8.8,1c.4.2,1,.3,1.7.3s1.6-.2,2.7-.5l.3,2.4c-.7.2-1.3.3-2,.4-.6,0-1.3.1-2,.1Z"/>
  </g>
</svg>