<?xml version="1.0" encoding="UTF-8"?>
<svg id="Layer_1" xmlns="http://www.w3.org/2000/svg" version="1.1" viewBox="0 0 198.4 127.6">
  <!-- Generator: Adobe Illustrator 29.8.3, SVG Export Plug-In . SVG Version: 2.1.1 Build 3)  -->
  <defs>
    <style>
      .st0, .st1 {
        fill: none;
        stroke: #a9ae69;
        stroke-miterlimit: 10;
        stroke-width: 4px;
      }

      .st2 {
        fill: #a9ae69;
      }

      .st1 {
        stroke-dasharray: 11.5 11.5;
      }
    </style>
  </defs>
  <g>
    <line class="st2" x1="17.8" y1="73.1" x2="180" y2="75.1"/>
    <g>
      <line class="st0" x1="17.8" y1="73.1" x2="23.8" y2="73.2"/>
      <line class="st1" x1="35.3" y1="73.3" x2="144.4" y2="74.7"/>
      <line class="st0" x1="150.1" y1="74.7" x2="156.1" y2="74.8"/>
      <polygon class="st2" points="144.7 89.5 151.2 74.8 145.1 59.9 180 75.1 144.7 89.5"/>
    </g>
  </g>
  <g>
    <path class="st2" d="M48.2,58.6v-3.6c-.1,0,1.6,0,1.6,0l.9,3.9-1.6-.8v-1.1c1.2.9,2.4,1.4,4.1,1.4,2.5,0,3.7-1,3.7-2.5s-1-2.1-3.1-2.9l-1.5-.6c-2.4-.9-4-2.2-4-4.4s2-4.6,5.7-4.6,3.2.5,4.6,1.4v3.3h-1.8l-.7-3.3,1.2.5v.9c-1.1-.8-2.2-1.3-3.4-1.3-2,0-3.1.9-3.1,2.3s.8,2,3.1,2.9l1,.4c3.3,1.2,4.6,2.8,4.6,4.8s-2.1,4.7-6.4,4.7-3.3-.4-4.9-1.3Z"/>
    <path class="st2" d="M64.9,51.3c0,4.2,2.2,6.4,5.3,6.4s3.6-.9,4.6-2.6l.8.4c-.9,2.7-3,4.3-6.1,4.3-4.5,0-7.4-3.2-7.4-8.2s3.6-8.3,7.6-8.3,5.4,1.8,5.8,4.3c-.2.8-.7,1.2-1.5,1.2s-1.5-.7-1.7-1.5l-.8-2.9,1.5,1.2c-1.1-.6-2.2-.8-3.2-.8-2.9,0-4.9,2.3-4.9,6.5Z"/>
    <path class="st2" d="M80.7,52.5v-1.6c0-1.8,0-2.8,0-4.2l-2.6-.3v-1.2l4.5-2,.5.3.4,4.1v4.7c0,2,0,5.4,0,6.9h-2.8c0-1.5,0-4.9,0-6.9ZM78.2,58.2l3.6-.7h.7l3.6.7v1.2h-7.9v-1.2ZM82,48h1.9l-.8.2c1.1-3.1,3.1-4.9,5-4.9s1.9.5,2.3,1.1c0,1.6-.6,2.4-1.9,2.4s-1.4-.3-2-.8l-.9-.8,1.6-.3c-2,1.1-3.2,2.7-4,5.2h-1.3v-2.2Z"/>
    <path class="st2" d="M91.8,51.6c0-5.5,3.7-8.3,7.5-8.3s7.5,2.8,7.5,8.3-3.8,8.2-7.5,8.2-7.5-2.7-7.5-8.2ZM103.9,51.6c0-4.4-1.7-6.8-4.6-6.8s-4.6,2.4-4.6,6.8,1.6,6.7,4.6,6.7,4.6-2.3,4.6-6.7Z"/>
    <path class="st2" d="M113.9,35l.5.3v4.7c-.1,0-.1,12.5-.1,12.5,0,2.3,0,4.6,0,6.9h-2.8c0-2.3,0-4.6,0-6.9v-14.5l-2.7-.3v-1.2l5-1.5ZM117,58.2v1.2h-8.1v-1.2l3.7-.7h.7l3.7.7Z"/>
    <path class="st2" d="M123.7,35l.5.3v4.7c-.1,0-.1,12.5-.1,12.5,0,2.3,0,4.6,0,6.9h-2.8c0-2.3,0-4.6,0-6.9v-14.5l-2.7-.3v-1.2l5-1.5ZM126.8,58.2v1.2h-8.1v-1.2l3.7-.7h.7l3.7.7Z"/>
  </g>
</svg>