<?xml version="1.0" encoding="UTF-8"?>
<svg id="Layer_1" xmlns="http://www.w3.org/2000/svg" version="1.1" viewBox="0 0 708.7 127.6">
  <!-- Generator: Adobe Illustrator 29.8.3, SVG Export Plug-In . SVG Version: 2.1.1 Build 3)  -->
  <defs>
    <style>
      .st0 {
        fill: #7ecce1;
      }

      .st1 {
        font-family: Elephant-Regular, Elephant;
      }

      .st1, .st2, .st3, .st4 {
        fill: #f1ed73;
      }

      .st1, .st3, .st4 {
        font-size: 75.5px;
      }

      .st5 {
        fill: #827cbb;
      }

      .st6 {
        fill: #e29c7e;
      }

      .st7 {
        fill: #e2cb7e;
      }

      .st8 {
        fill: #d481b5;
      }

      .st3 {
        font-family: Rockwell-ExtraBold, 'Rockwell Extra Bold';
        font-weight: 700;
      }

      .st4 {
        font-family: Broadway, Broadway;
      }
    </style>
  </defs>
  <rect class="st6" x="6.9" y="6.5" width="117.3" height="115.1" rx="7.7" ry="7.7"/>
  <text class="st4" transform="translate(47.3 90.2)"><tspan x="0" y="0">t</tspan></text>
  <rect class="st5" x="131" y="6.4" width="117.3" height="115.1" rx="7.7" ry="7.7"/>
  <path class="st2" d="M194.4,66.3h-19.7v18.4h22.1v5.5h-28.7v-50.9h27.5v5.5h-20.9v16.1h19.7v5.4Z"/>
  <rect class="st7" x="254.7" y="6.4" width="117.3" height="115.1" rx="7.7" ry="7.7"/>
  <text class="st3" transform="translate(269.1 84.7)"><tspan x="0" y="0">m</tspan></text>
  <rect class="st0" x="378.4" y="6.5" width="117.3" height="115.1" rx="7.7" ry="7.7"/>
  <text class="st1" transform="translate(410.7 90.2)"><tspan x="0" y="0">A</tspan></text>
  <rect class="st8" x="523.4" y="6.4" width="117.3" height="115.1" rx="7.7" ry="7.7"/>
  <path class="st2" d="M587.4,89.9c-5.7,0-10-1.3-13.1-4s-4.6-6.5-4.6-11.4h7.9c0,2.7.9,4.8,2.6,6.4,1.7,1.5,4.2,2.3,7.4,2.3s5.6-.9,7.3-2.8c1.7-1.9,2.6-4.6,2.6-8s-.9-6-2.8-7.8c-1.9-1.9-4.5-2.8-8-2.8s-6.7.8-9.7,2.4l.7-6.3c1.9-1.1,3.9-1.8,5.8-2.2,1.9-.4,3.8-.6,5.8-.6,5.1,0,9,1.5,11.8,4.5,2.8,3,4.2,7.2,4.2,12.8s-.7,6.9-2.1,9.5c-1.4,2.6-3.4,4.6-6,6-2.6,1.4-5.8,2.1-9.6,2.1ZM572.8,64.1l.7-27.3h7.9l-.7,22.7-3.8,4.6h-4.1ZM577.1,43.6l-.7-6.9h25.4v6.9h-24.7Z"/>
</svg>