<?xml version="1.0" encoding="UTF-8"?>
<svg id="Layer_1" xmlns="http://www.w3.org/2000/svg" version="1.1" viewBox="0 0 1024 768">
  <!-- Generator: Adobe Illustrator 29.8.3, SVG Export Plug-In . SVG Version: 2.1.1 Build 3)  -->
  <defs>
    <style>
      .st0 {
        fill: #75d6c4;
      }

      .st1 {
        fill: #e07eb2;
        stroke: #e07eb2;
      }

      .st1, .st2, .st3, .st4, .st5, .st6 {
        stroke-miterlimit: 10;
      }

      .st7 {
        fill: #c4d675;
        font-family: ShowcardGothic-Reg, 'Showcard Gothic';
      }

      .st7, .st8, .st9, .st10 {
        font-size: 100px;
      }

      .st11 {
        fill: #acd675;
      }

      .st12 {
        fill: #d6758f;
      }

      .st2 {
        fill: #e29b7e;
        stroke: #e29b7e;
      }

      .st13 {
        fill: #75d697;
      }

      .st14 {
        fill: #75c1d6;
        font-family: BerlinSansFB-Reg, 'Berlin Sans FB';
      }

      .st3 {
        fill: #7ed0e2;
        stroke: #7ed0e2;
      }

      .st15 {
        fill: #d69275;
      }

      .st16 {
        fill: #759dd6;
      }

      .st17 {
        fill: #d6d275;
      }

      .st4 {
        stroke: #629daa;
        stroke-width: 3px;
      }

      .st4, .st5, .st6 {
        fill: #f2ed71;
      }

      .st18 {
        fill: #d67575;
        font-family: AgencyFB-Bold, 'Agency FB';
      }

      .st18, .st10, .st6 {
        font-weight: 700;
      }

      .st19 {
        fill: #d67d75;
      }

      .st20 {
        fill: #75b2d6;
      }

      .st21 {
        fill: #d675aa;
      }

      .st9 {
        fill: #c975d6;
        font-family: Rockwell, Rockwell;
      }

      .st22 {
        fill: #d275d6;
      }

      .st23 {
        fill: #75a7d6;
      }

      .st24 {
        fill: #88d675;
      }

      .st10 {
        fill: #757ad6;
        font-family: Rockwell-ExtraBold, 'Rockwell Extra Bold';
      }

      .st5 {
        font-family: EngraversMT, 'Engravers MT';
        stroke: #ae658c;
      }

      .st5, .st6 {
        font-size: 115.3px;
        stroke-width: 2px;
      }

      .st25 {
        fill: #d6bc75;
      }

      .st6 {
        font-family: Constantia-BoldItalic, Constantia;
        font-style: italic;
        stroke: #ab6263;
      }
    </style>
  </defs>
  <rect class="st3" x="202.7" y="274.6" width="179.1" height="175.8" rx="7.7" ry="7.7"/>
  <rect class="st1" x="246.2" y="458.6" width="179.1" height="175.8" rx="7.7" ry="7.7"/>
  <path class="st4" d="M292.2,400.3c-19.4,0-29-13.5-29-40.5s9.7-41.7,29-41.7,29,13.9,29,41.7-9.7,40.5-29,40.5ZM292.2,391.7c12.8,0,19.2-10.6,19.2-31.9s-6.4-33-19.2-33-19.2,11-19.2,33,6.4,31.9,19.2,31.9Z"/>
  <text class="st5" transform="translate(285.4 583.2)"><tspan x="0" y="0">O</tspan></text>
  <rect class="st2" x="124.4" y="108.4" width="179.1" height="175.8" rx="7.7" ry="7.7" transform="translate(-43 61.2) rotate(-14.8)"/>
  <text class="st6" transform="translate(182.1 242.8) rotate(-14.8)"><tspan x="0" y="0">V</tspan></text>
  <g>
    <path class="st11" d="M354.6,138.7v10.3h-20.3v-10.3h20.3ZM354.6,153v64.8h-20.3v-64.8h20.3Z"/>
    <path class="st19" d="M390.3,180.1c0-.9-.5-1.6-1.4-2.2-.9-.6-2-.9-3.3-.9-2.4,0-4.7.7-6.6,2.1-2,1.4-3.5,3.5-4.7,6.1-1.1,2.7-1.7,5.7-1.7,9s.7,5.9,2,8.4c1.3,2.5,3.1,4.5,5.3,5.9,2.2,1.4,4.7,2.1,7.3,2.1s4.5-.5,6.9-1.5c2.4-1,4.3-2.3,5.7-3.8l1.7,2.3c-2.6,3.7-5.7,6.6-9.3,8.5-3.6,2-7.3,3-11,3s-6.7-.9-9.9-2.8c-3.1-1.9-5.6-4.5-7.5-7.7-1.9-3.2-2.8-6.8-2.8-10.6s.6-6.1,1.7-8.9c1.1-2.8,2.8-5.4,4.9-7.6,2.1-2.2,4.7-4,7.6-5.2s6.2-1.9,9.7-1.9,5.5.4,7.8,1.3c2.3.9,4.2,2.1,5.5,3.6,1.4,1.5,2,3.2,2,5s-.6,2.9-1.8,4c-1.2,1-2.6,1.6-4.2,1.6s-2.7-.5-3.6-1.5c-1-1-1.4-2.1-1.4-3.3s.1-1,.4-2.2c.3-1.3.4-2.1.4-2.6ZM377.3,177.3c-3.1,1.2-5.8,2.8-7.9,4.8-2.2,2.1-3.8,4.4-5,7.2-1.1,2.7-1.7,5.5-1.7,8.3s.9,7.2,2.7,10.3c1.8,3,4.2,5.4,7.2,7.1,3,1.7,6,2.5,9.1,2.5,4.5,0,8.7-1.5,12.6-4.4-4.3,1.4-7.7,2.1-10.3,2.1s-6.4-.7-9.1-2.2c-2.8-1.5-5-3.6-6.6-6.2-1.6-2.7-2.4-5.6-2.4-8.9s1-7.5,3-11c2-3.5,4.8-6.6,8.5-9.4ZM391,184.8c0,1,.4,1.8,1.2,2.3.8.5,1.7.8,2.6.8s1.1-.1,2.4-.4c-2-.4-3-1.5-3-3.1s0-.5.2-1.1c.1-.6.2-1.1.2-1.6,0-1.8-1.3-3.2-3.8-4.1.7,1,1.1,1.9,1.1,2.8s-.1,1.3-.4,2.2c-.3.9-.4,1.7-.4,2.1Z"/>
    <path class="st21" d="M407.6,157.7h-1.9c-.6,0-.9,0-1-.2-.1-.1-.2-.5-.2-1.1v-3.5c0-.7,0-1.1.2-1.3s.6-.3,1.3-.4c2.3-.4,4.7-1.7,7.1-3.9,2.4-2.2,3.8-4.7,4.2-7.2.2-.9.4-1.5.6-1.7.2-.2.7-.3,1.5-.3h3.2c.8,0,1.3.6,1.3,1.7v11.2h3c1.1,0,1.7.5,1.7,1.6v3.5c0,1-.6,1.6-1.7,1.6h-3v50.6c0,1.7.8,3,2.3,3.7.7.4,1.2.8,1.5,1.3.2.5.3,1.5.3,2.8s0,1.3-.2,1.4c-.1,0-.5.1-1.2.1h-15.4c-2.3-2.1-3.5-5.2-3.5-9.4v-50.6Z"/>
    <path class="st20" d="M459,218.9c-7.4,0-13.3-2.3-17.7-7-4.4-4.7-6.6-10.9-6.6-18.6s2.3-15,6.9-19.7c4.6-4.7,10.8-7.1,18.6-7.1s13.3,2.3,17.5,6.9c4.2,4.6,6.3,11,6.3,19.1s-2.3,14.4-6.8,19.2c-4.5,4.8-10.6,7.2-18.1,7.2ZM459.6,173.3c-5.1,0-9.2,1.8-12.2,5.2-3,3.5-4.5,8.3-4.5,14.5s1.5,10.6,4.5,14,7.1,5.1,12.2,5.1,9.2-1.7,11.9-5c2.8-3.4,4.2-8.1,4.2-14.3s-1.4-11.1-4.2-14.5c-2.8-3.4-6.8-5.1-11.9-5.1Z"/>
    <path class="st13" d="M493.1,217.8v-4l5.7-2.3c.5-.2.9-.5,1.2-.8.3-.3.5-.7.5-1.3v-30.4c0-1.2-.1-1.9-.4-2.4-.3-.4-.7-.8-1.2-1l-6.3-2.8v-4.1l20-2.3v10.5h.5c2-3.1,4-5.4,5.7-6.9,1.8-1.6,3.5-2.6,5.1-3.2,1.6-.5,3.2-.8,4.7-.8s3,.2,4.5.5c1.6.4,3,1.1,4.3,2.2v14h-9.2l-1.3-3.3c-.2-.7-.8-1.3-1.6-1.9-.8-.6-1.7-.9-2.8-.9s-2.4.3-3.5.8c-1.1.5-2,1.2-3,2-.9.9-1.9,1.8-2.9,2.9v27.1c0,1,.6,1.7,1.7,2.1l7.7,2.3v4h-29.6Z"/>
    <path class="st17" d="M592.5,205.1l.2,4.6c.2,2.1.7,3.6,1.4,4.5.7.8,1.8,1.3,3.2,1.5,1.4.2,2.8.3,3.9.4,1.2,0,2.2.1,3.1.2v1.6h-48.7v-1.6l6.6-.3c2-.2,3.4-.7,4.1-1.5.7-.8,1.2-2.3,1.4-4.5l.2-4.6v-18.6l-18.9-30.8c-2.3-3.5-4.1-5.9-5.4-7-1.3-1.1-3-1.8-5.1-2.1l-2.8-.3v-1.6h46.7v1.6l-5.2.2c-1.4.1-2.4.3-3,.6-.6.3-.9.9-.9,1.9s.1,1.5.4,2.1c.3.7.9,2,2,3.8,1.1,1.8,3.1,5.2,6.2,10,3,4.9,6,9.5,8.8,13.9,2.3-3.9,4.7-8.2,7.4-12.8,2.7-4.6,4.6-8.1,5.9-10.5,1.3-2.4,2-4.4,2-5.9s-1.5-2.9-4.4-3.2l-4-.2v-1.6h23.9v1.6l-2.6.2c-2.3,0-4.2.4-5.7,1.3-1.5.9-3.1,2.6-4.8,5.1-1.7,2.6-4,6.4-7,11.6-3,5.2-5.9,10.3-8.8,15.4v24.9Z"/>
  </g>
  <text class="st8" transform="translate(432 584.7)"><tspan class="st14" x="0" y="0">k</tspan><tspan class="st18" x="54.7" y="0">o</tspan></text>
  <text class="st10" transform="translate(527.2 584.7) scale(1 1.2)"><tspan x="0" y="0">s</tspan></text>
  <text class="st7" transform="translate(588.8 584.7) scale(1 .6)"><tspan x="0" y="0">u</tspan></text>
  <text class="st9" transform="translate(658.9 584.7) scale(1.3 1.2)"><tspan x="0" y="0">n</tspan></text>
  <g>
    <path class="st15" d="M474.1,390.2h-15.4v-28.5c0-7.3-2.7-10.9-8-10.9s-4.6,1.1-6.2,3.3c-1.6,2.2-2.4,4.9-2.4,8.2v28h-15.4v-28.8c0-7.1-2.6-10.6-7.9-10.6s-4.7,1-6.3,3.1c-1.6,2.1-2.4,4.9-2.4,8.5v27.8h-15.4v-50h15.4v7.8h.2c1.6-2.7,3.8-4.8,6.7-6.5,2.9-1.7,6-2.5,9.4-2.5,7.1,0,11.9,3.1,14.5,9.3,3.8-6.2,9.4-9.3,16.8-9.3,10.9,0,16.3,6.7,16.3,20.1v31.1Z"/>
    <path class="st16" d="M511.6,354.1v20.5c0,11.1-5.4,16.4-14.5,16.4s-14.3-5.4-14.3-16.3v-21c0-10.6,5.9-15.8,14.6-15.8s14.2,5.7,14.2,16.1ZM491.9,353.6v21.4c0,4.8,1.5,8,5.4,8s5.3-2.6,5.3-8.2v-21.3c0-4.4-1.3-7.6-5.4-7.6s-5.4,2.7-5.4,7.7Z"/>
    <path class="st11" d="M518.5,390.2v-4.3l6-2.5c.5-.3.9-.5,1.3-.8.3-.3.5-.7.5-1.3v-32.4c0-.6-.2-1.1-.5-1.4-.4-.3-.8-.5-1.2-.8l-5.9-2.5v-4.4l22-2.4v8.1h.7c2-2.6,4-4.4,6-5.7,2-1.2,3.9-2,5.9-2.3,1.9-.4,3.8-.5,5.6-.5,3.2,0,6.1.6,8.7,1.8,2.6,1.2,4.7,3.1,6.2,5.6,1.5,2.5,2.3,5.9,2.3,9.9v26.7c0,.7.2,1.2.5,1.5.3.3.8.6,1.3.8l5.2,2.5v4.3h-29.1v-4.3l4.7-2.5c.5-.3,1-.6,1.4-.9.4-.3.5-.8.5-1.5v-20.6c0-2.9-.2-5.3-.7-7.3-.4-2-1.3-3.5-2.6-4.5-1.3-1-3.2-1.6-5.7-1.6s-3.4.2-5.3.7c-1.9.5-3.4,1.6-4.6,3.4v30.1c0,.6.2,1,.5,1.3.3.2.8.5,1.3.9l4.3,2.5v4.3h-29.3Z"/>
    <path class="st25" d="M599.5,331c-1.9,0-3.4-.6-4.8-1.7-1.3-1.1-2-2.8-2-4.8s.7-3.4,2-4.7c1.4-1.2,2.9-1.8,4.7-1.8s3.3.6,4.6,1.7c1.3,1.1,2,2.7,2,4.8s-.7,3.7-2,4.8c-1.3,1.2-2.8,1.7-4.6,1.7ZM606.1,344.8v38.5c0,2.7-.6,4.7-1.9,6.1s-2.9,2.1-4.8,2.1-3.5-.7-4.8-2.1-1.8-3.4-1.8-6v-38.1c0-2.6.6-4.6,1.8-6,1.2-1.3,2.8-2,4.8-2s3.6.7,4.8,2c1.3,1.3,1.9,3.2,1.9,5.6Z"/>
    <path class="st12" d="M617.3,361v-10.6c7.5-.2,13.8-1.3,18.7-3.1l-.7,11.4-.7,13.2c3.2-5.2,5.3-9.2,6.4-11.9,1.1-2.8,2.1-6.8,2.9-11.8,4.2.3,10.1.8,17.8,1.4-.6,2.8-1.5,9.6-2.7,20.3l-1.6,16.8c-.5,4.8-1,8.3-1.6,10.4-.7,2.3-2.1,5-4.3,8.1-2.3,3.3-5.6,7.2-9.8,11.7-10.8-1-19-3.5-24.8-7.6l-2.9-7c1.5-2.5,3.6-5.5,6.3-8.9,1.8,2.3,4.5,3.8,8,4.7,3.6.9,7.8,1.7,12.8,2.5-.7-7.9-1-14.2-1-18.7s.1-6.1.3-9.9l-11.6,14.9c-1.3,1.6-2,3.1-2.3,4.6-2.7-.3-5.3-1.1-7.7-2.2-.3-2.6-.6-5.4-.8-8.3-.2-2.2-.4-5.4-.6-9.7-.2-3.6-.3-6.9-.3-10.1Z"/>
    <path class="st22" d="M694.1,327.5c-1.7.6-2.8,1.4-3.5,2.4-.7,1-1,2.5-1,4.4v43.7c0,2.9.4,4.9,1.2,6.1.6,1,1.7,1.7,3.4,2.1v5.4c-7.2-.6-13.3-3.3-18.2-8.2-6.3-6.3-9.5-15.1-9.5-26.4s.8-10.8,2.5-15.4c1.7-4.6,4.2-8.5,7.4-11.6,2.5-2.4,5.2-4.3,8.1-5.6,2.9-1.3,6.1-2,9.6-2.1v5.3ZM698.1,327.5v-5.3c3.5.2,6.7.9,9.6,2.1,2.9,1.3,5.6,3.1,8.1,5.6,6.6,6.5,10,15.5,10,27s-3.2,20.1-9.5,26.4c-4.9,4.9-11,7.6-18.2,8.2v-5.4c.8-.2,1.5-.4,2-.8.5-.3.9-.8,1.3-1.3.9-1.3,1.3-3.4,1.3-6.1v-43.7c0-1.7-.3-3.1-.9-4.1-.4-.7-.9-1.2-1.4-1.6s-1.3-.8-2.3-1.1Z"/>
    <path class="st23" d="M730.2,339h-2.3c-.3-.2-.5-.4-.5-.6s.2-.4.5-.6h13.1c.2,0,.3,0,.4.2.1.1.2.3.2.4s0,.3-.2.4c-.1.1-.3.2-.4.2h-2.2l4.4,37.5,4.2-29.5c.2-1.1.2-2.1.2-3,0-1.8-.2-3-.7-3.7-.5-.7-1.2-1.1-2.1-1.2l-.7-.2c0-.1-.1-.3-.1-.5s0-.4.1-.5c0-.1.2-.2.4-.2h7.4c.2,0,.3,0,.5.2.1.1.2.3.2.5s0,.3-.1.4c0,0-.3.2-.5.2-.5.1-.8.5-1.2,1-.9,1.5-1.5,3.5-1.9,5.9l-7.3,51.4c-.5,3.7-1.6,6.5-3.3,8.3-1.7,1.8-3.4,2.8-5.2,2.8s-2.6-.6-3.7-1.8-1.6-2.8-1.6-4.8.4-3,1.2-3.9,1.8-1.4,2.9-1.4,2,.4,2.8,1.3c.8.8,1.2,1.9,1.2,3.1,0,1.9-.8,3.4-2.5,4.5-.5.3-.7.6-.7.9s0,.4.3.5c.2.1.4.2.8.2,1.2,0,2.4-.7,3.5-2,1.5-1.8,2.6-4.7,3.3-8.7l1-6h-5.3l-6-51.2Z"/>
    <path class="st0" d="M806,343.2l2.4.6c-2.4,2.6-4,4.5-4.6,5.9-.7,1.4-1,3.2-1,5.5v19.6c0,3.2.3,5.3,1,6.1.7.8,1.5,1.2,2.4,1.2s1,0,1.5-.3c.3-.1,1.3-.7,2.9-1.6l1.7,1.4-14.3,8.4c-3.5-1.8-5.8-3.5-7-4.9-1.2-1.5-1.8-3.5-2-6.1l-20.5,11c-7.7-4.3-11.6-8.5-11.6-12.7s.8-5.4,2.5-7.9c2.2-3.2,6-7,11.4-11.3l-8.1-11.8.9-1.2c1.7,0,3,.1,3.9.1,5.3,0,10-1.4,14-4.3,3.3,1.3,6.8,2.3,10.7,3.1,3.9.8,6.8,1.2,8.9,1.2s1.7-.1,2.2-.3c.5-.2,1.3-.9,2.5-2ZM789.1,352l-23-4.8,8.2,11.8,14.8,4.7v-11.8ZM789.1,365.6l-16.3-5.2c-2.5,3.7-3.8,7-3.8,9.8,0,5,3.3,9.1,9.9,12.3l10.2-5.6v-11.3Z"/>
    <path class="st24" d="M847.2,347.4v17.6h-5.5v25.2h-19.8v-66.7h19.8v23.8h5.5ZM870.3,323.5v66.7h-19.8v-66.7h19.8Z"/>
  </g>
</svg>