<?xml version="1.0" encoding="UTF-8"?>
<svg id="Layer_1" xmlns="http://www.w3.org/2000/svg" version="1.1" viewBox="0 0 1024 768">
  <!-- Generator: Adobe Illustrator 29.8.3, SVG Export Plug-In . SVG Version: 2.1.1 Build 3)  -->
  <defs>
    <style>
      .st0 {
        fill: #75d6c4;
      }

      .st1 {
        fill: #e07eb2;
        stroke: #e07eb2;
      }

      .st1, .st2, .st3, .st4, .st5, .st6 {
        stroke-miterlimit: 10;
      }

      .st7 {
        fill: #c4d675;
      }

      .st8 {
        font-family: ArialRoundedMTBold, 'Arial Rounded MT Bold';
      }

      .st8, .st9 {
        fill: #d6bc75;
      }

      .st10 {
        fill: #acd675;
      }

      .st11 {
        fill: #d6758f;
      }

      .st2 {
        fill: #e29b7e;
        stroke: #e29b7e;
      }

      .st12 {
        fill: #75d697;
      }

      .st13 {
        fill: #75c1d6;
      }

      .st14, .st15, .st16 {
        font-size: 100px;
      }

      .st3 {
        fill: #7ed0e2;
        stroke: #7ed0e2;
      }

      .st17 {
        fill: #d69275;
      }

      .st18 {
        fill: #759dd6;
      }

      .st19 {
        fill: #d6d275;
      }

      .st4 {
        stroke: #629daa;
        stroke-width: 3px;
      }

      .st4, .st5, .st6 {
        fill: #f2ed71;
      }

      .st20 {
        fill: #d67575;
        font-family: AgencyFB-Bold, 'Agency FB';
      }

      .st20, .st16, .st6 {
        font-weight: 700;
      }

      .st21 {
        fill: #d67d75;
      }

      .st22 {
        fill: #75b2d6;
      }

      .st23 {
        fill: #d675aa;
      }

      .st15 {
        fill: #c975d6;
        font-family: Rockwell, Rockwell;
      }

      .st24 {
        fill: #d275d6;
      }

      .st25 {
        fill: #75a7d6;
      }

      .st26 {
        fill: #88d675;
      }

      .st16 {
        fill: #757ad6;
        font-family: Rockwell-ExtraBold, 'Rockwell Extra Bold';
      }

      .st5 {
        font-family: EngraversMT, 'Engravers MT';
        stroke: #ae658c;
      }

      .st5, .st6 {
        font-size: 115.3px;
        stroke-width: 2px;
      }

      .st6 {
        font-family: Constantia-BoldItalic, Constantia;
        font-style: italic;
        stroke: #ab6263;
      }
    </style>
  </defs>
  <rect class="st1" x="481.5" y="489.2" width="179.1" height="175.8" rx="7.7" ry="7.7"/>
  <text class="st5" transform="translate(520.7 613.9)"><tspan x="0" y="0">O</tspan></text>
  <g>
    <path class="st0" d="M218,181.2l2.4.6c-2.4,2.6-4,4.5-4.6,5.9-.7,1.4-1,3.2-1,5.5v19.6c0,3.2.3,5.3,1,6.1.7.8,1.5,1.2,2.4,1.2s1,0,1.5-.3c.3-.1,1.3-.7,2.9-1.6l1.7,1.4-14.3,8.4c-3.5-1.8-5.8-3.5-7-4.9-1.2-1.5-1.8-3.5-2-6.1l-20.5,11c-7.7-4.3-11.6-8.5-11.6-12.7s.8-5.4,2.5-7.9c2.2-3.2,6-7,11.4-11.3l-8.1-11.8.9-1.2c1.7,0,3,.1,3.9.1,5.3,0,9.9-1.4,14-4.3,3.3,1.3,6.8,2.3,10.7,3.1,3.9.8,6.8,1.2,8.9,1.2s1.7-.1,2.2-.3,1.3-.9,2.5-2ZM201.1,189.9l-23-4.8,8.2,11.8,14.8,4.7v-11.8ZM201.1,203.6l-16.3-5.2c-2.5,3.7-3.8,7-3.8,9.8,0,5,3.3,9.1,9.9,12.3l10.2-5.6v-11.3Z"/>
    <path class="st7" d="M295.2,180.2l-1.1,20.2c-.3,5.8-.5,14.5-.5,26.2-8.3,1.9-16.8,2.9-25.5,2.9s-18.8-1.4-24.4-4.1c-4.7-2.3-8.1-5.9-10-10.8-1.1-2.8-2.2-8-3.2-15.4-1-6.9-1.6-13.2-1.8-18.9h31.5c-.2,2.8-.4,7.2-.6,13.4,0,3.5,0,8.4,0,14.7,0,4.8.7,8.1,2,9.8,1.3,1.8,4,2.7,8,2.7s2.4-.2,3.8-.6c0-4.3-.2-11.1-.6-20.5-.3-4.7-.9-11.2-1.8-19.5h24.1Z"/>
    <path class="st23" d="M301.9,168.2h-1.9c-.6,0-.9,0-1-.2-.1-.1-.2-.5-.2-1.1v-3.5c0-.7,0-1.1.2-1.3s.6-.3,1.3-.4c2.3-.4,4.7-1.7,7.1-3.9,2.4-2.2,3.8-4.7,4.2-7.2.2-.9.4-1.5.6-1.7.2-.2.7-.3,1.5-.3h3.2c.8,0,1.3.6,1.3,1.7v11.2h3c1.1,0,1.7.5,1.7,1.6v3.5c0,1-.6,1.6-1.7,1.6h-3v50.6c0,1.7.8,3,2.3,3.7.7.4,1.2.8,1.5,1.3.2.5.3,1.5.3,2.8s0,1.3-.2,1.4c-.1,0-.5.1-1.2.1h-15.4c-2.3-2.1-3.5-5.2-3.5-9.4v-50.6Z"/>
    <path class="st22" d="M353.4,229.3c-7.4,0-13.3-2.3-17.7-7-4.4-4.7-6.6-10.9-6.6-18.6s2.3-15,6.9-19.7c4.6-4.7,10.8-7.1,18.6-7.1s13.3,2.3,17.5,6.9c4.2,4.6,6.3,11,6.3,19.1s-2.3,14.4-6.8,19.2c-4.5,4.8-10.6,7.2-18.1,7.2ZM353.9,183.7c-5.1,0-9.2,1.8-12.2,5.2-3,3.5-4.5,8.3-4.5,14.5s1.5,10.6,4.5,14,7.1,5.1,12.2,5.1,9.2-1.7,11.9-5c2.8-3.4,4.2-8.1,4.2-14.3s-1.4-11.1-4.2-14.5c-2.8-3.4-6.8-5.1-11.9-5.1Z"/>
    <path class="st10" d="M386.8,228.2v-4.3l6-2.5c.5-.3.9-.5,1.3-.8.3-.3.5-.7.5-1.3v-32.4c0-.6-.2-1.1-.5-1.4s-.8-.5-1.2-.8l-5.9-2.5v-4.4l22-2.4v8.1h.7c2-2.6,4-4.4,6-5.7,2-1.2,3.9-2,5.9-2.3,1.9-.4,3.8-.5,5.6-.5,3.2,0,6.1.6,8.7,1.8,2.6,1.2,4.7,3.1,6.2,5.6,1.5,2.5,2.3,5.9,2.3,9.9v26.7c0,.7.2,1.2.5,1.5.3.3.8.6,1.3.8l5.2,2.5v4.3h-29.1v-4.3l4.7-2.5c.5-.3,1-.6,1.4-.9.4-.3.5-.8.5-1.5v-20.6c0-2.9-.2-5.3-.7-7.3-.4-2-1.3-3.5-2.6-4.5-1.3-1-3.2-1.6-5.7-1.6s-3.4.2-5.3.7c-1.9.5-3.4,1.6-4.6,3.4v30.1c0,.6.2,1,.5,1.3.3.2.8.5,1.3.9l4.3,2.5v4.3h-29.3Z"/>
    <path class="st17" d="M734,228.2h-15.4v-28.5c0-7.3-2.7-10.9-8-10.9s-4.6,1.1-6.2,3.3c-1.6,2.2-2.4,4.9-2.4,8.2v28h-15.4v-28.8c0-7.1-2.6-10.6-7.9-10.6s-4.7,1-6.3,3.1c-1.6,2.1-2.4,4.9-2.4,8.5v27.8h-15.4v-50h15.4v7.8h.2c1.6-2.7,3.8-4.8,6.7-6.5,2.9-1.7,6-2.5,9.4-2.5,7.1,0,11.9,3.1,14.5,9.3,3.8-6.2,9.4-9.3,16.8-9.3,10.9,0,16.3,6.7,16.3,20.1v31.1Z"/>
    <path class="st10" d="M763.5,149.1v10.3h-20.3v-10.3h20.3ZM763.5,163.4v64.8h-20.3v-64.8h20.3Z"/>
  </g>
  <g>
    <path class="st19" d="M392.5,599l.2,4.6c.2,2.1.6,3.6,1.4,4.5.7.8,1.8,1.3,3.2,1.5,1.4.2,2.8.3,4,.3,1.2,0,2.2.1,3.1.2v1.6h-48.7v-1.6l6.6-.3c2-.2,3.4-.7,4.1-1.5.7-.8,1.2-2.3,1.4-4.5l.2-4.6v-18.6l-18.9-30.8c-2.3-3.5-4-5.9-5.4-7-1.3-1.1-3-1.8-5.1-2.1l-2.8-.3v-1.6h46.7v1.6l-5.2.2c-1.4.1-2.4.3-3,.6-.6.3-.9.9-.9,1.9s.1,1.5.4,2.1c.3.7.9,2,2,3.8,1.1,1.8,3.1,5.2,6.1,10,3,4.9,6,9.5,8.8,13.9,2.3-3.9,4.7-8.2,7.4-12.8,2.7-4.6,4.6-8.1,6-10.5,1.3-2.4,1.9-4.4,1.9-5.9s-1.5-2.9-4.4-3.2l-4-.2v-1.6h23.9v1.6l-2.6.2c-2.3,0-4.2.4-5.7,1.3-1.5.9-3.1,2.6-4.8,5.2s-4,6.4-7,11.6c-3,5.2-5.9,10.3-8.8,15.5v24.9Z"/>
    <path class="st18" d="M446.2,575.5v20.5c0,11.1-5.4,16.4-14.5,16.4s-14.3-5.4-14.3-16.3v-21c0-10.6,5.9-15.8,14.6-15.8s14.2,5.7,14.2,16.1ZM426.5,575.1v21.4c0,4.8,1.5,8,5.4,8s5.3-2.6,5.3-8.2v-21.3c0-4.4-1.3-7.6-5.4-7.6s-5.4,2.7-5.4,7.7Z"/>
    <path class="st25" d="M451.6,560.5h-2.3c-.3-.2-.5-.4-.5-.6s.2-.4.5-.6h13.1c.2,0,.3,0,.4.2.1.1.2.3.2.4s0,.3-.2.4c-.1.1-.3.2-.4.2h-2.2l4.4,37.5,4.2-29.5c.2-1.1.2-2.1.2-3,0-1.8-.2-3-.7-3.7-.5-.7-1.2-1.1-2.1-1.2l-.7-.2c0-.1-.1-.3-.1-.5s0-.4.1-.5c0-.1.2-.2.4-.2h7.4c.2,0,.3,0,.5.2.1.1.2.3.2.5s0,.3-.1.4c0,0-.3.2-.5.2-.5.1-.8.5-1.2,1-.9,1.5-1.5,3.5-1.9,5.9l-7.3,51.4c-.5,3.7-1.6,6.5-3.3,8.3-1.7,1.8-3.4,2.8-5.2,2.8s-2.6-.6-3.7-1.8-1.6-2.8-1.6-4.8.4-3,1.2-3.9,1.8-1.4,2.9-1.4,2,.4,2.8,1.3c.8.8,1.2,1.9,1.2,3.1,0,1.9-.8,3.4-2.5,4.5-.5.3-.7.6-.7.9s0,.4.3.5c.2.1.4.2.8.2,1.2,0,2.4-.7,3.5-2,1.5-1.8,2.6-4.7,3.3-8.7l1-6h-5.3l-6-51.2Z"/>
  </g>
  <g>
    <path class="st26" d="M132.2,377.5v17.6h-5.5v25.2h-19.8v-66.6h19.8v23.8h5.5ZM155.4,353.7v66.6h-19.8v-66.6h19.8Z"/>
    <path class="st9" d="M175.7,361.2c-1.9,0-3.4-.6-4.8-1.7-1.3-1.1-2-2.8-2-4.8s.7-3.4,2-4.7c1.4-1.2,2.9-1.8,4.7-1.8s3.3.6,4.6,1.7c1.3,1.1,2,2.7,2,4.8s-.7,3.7-2,4.8c-1.3,1.2-2.8,1.7-4.6,1.7ZM182.3,374.9v38.5c0,2.7-.6,4.7-1.9,6.1s-2.9,2.1-4.8,2.1-3.5-.7-4.8-2.1c-1.2-1.4-1.8-3.4-1.8-6v-38.1c0-2.6.6-4.6,1.8-6,1.2-1.3,2.8-2,4.8-2s3.6.7,4.8,2c1.3,1.3,1.9,3.2,1.9,5.6Z"/>
    <path class="st21" d="M221.3,382.6c0-.9-.5-1.6-1.4-2.2-.9-.6-2-.9-3.3-.9-2.4,0-4.7.7-6.6,2.1-2,1.4-3.5,3.5-4.7,6.1-1.1,2.7-1.7,5.7-1.7,9s.7,5.9,2,8.4c1.3,2.5,3.1,4.5,5.3,5.9,2.2,1.4,4.7,2.1,7.3,2.1s4.5-.5,6.9-1.5c2.4-1,4.3-2.3,5.7-3.8l1.7,2.3c-2.6,3.7-5.7,6.6-9.3,8.5-3.6,2-7.3,3-11,3s-6.7-.9-9.9-2.8c-3.1-1.9-5.6-4.5-7.5-7.7-1.9-3.2-2.8-6.8-2.8-10.6s.6-6.1,1.7-8.9c1.1-2.8,2.8-5.4,4.9-7.6,2.1-2.2,4.7-4,7.6-5.2s6.2-1.9,9.7-1.9,5.5.4,7.8,1.3c2.3.9,4.2,2.1,5.5,3.6,1.4,1.5,2,3.2,2,5s-.6,2.9-1.8,4c-1.2,1-2.6,1.6-4.2,1.6s-2.7-.5-3.6-1.5c-1-1-1.4-2.1-1.4-3.3s.1-1,.4-2.2c.3-1.3.4-2.1.4-2.6ZM208.3,379.9c-3.1,1.2-5.8,2.8-7.9,4.8-2.2,2.1-3.8,4.4-5,7.2-1.1,2.7-1.7,5.5-1.7,8.3s.9,7.2,2.7,10.3c1.8,3,4.2,5.4,7.2,7.1,3,1.7,6,2.5,9.1,2.5,4.5,0,8.7-1.5,12.6-4.4-4.3,1.4-7.7,2.1-10.3,2.1s-6.4-.7-9.1-2.2c-2.8-1.5-5-3.6-6.6-6.2-1.6-2.7-2.4-5.6-2.4-8.9s1-7.5,3-11c2-3.5,4.8-6.6,8.5-9.4ZM222.1,387.4c0,1,.4,1.8,1.2,2.3.8.5,1.7.8,2.6.8s1.1-.1,2.4-.4c-2-.4-3-1.5-3-3.1s0-.5.2-1.1c.1-.6.2-1.1.2-1.6,0-1.8-1.3-3.2-3.8-4.1.7,1,1.1,1.9,1.1,2.8s-.1,1.3-.4,2.2c-.3.9-.4,1.7-.4,2.1Z"/>
    <path class="st13" d="M287,386.8c0,8.5-3.9,14.1-11.8,17,0,1.7,3.3,6.8,9.8,15.5,0,.5-1.6.8-4.9,1-2.1,0-3.8.1-4.8.1-2.3,0-3.8-.5-4.3-1.5-1.5-2.6-3.9-6.4-7.2-11.4-.4-.6-3.9-.8-10.6-.7h-1.9v12.1c0,1-.4,1.5-1.1,1.5-1,0-2.6,0-4.6,0-2,0-3.6,0-4.6,0s-1.1-.6-1.1-1.9v-30.4c0-4-.2-9.9-.5-17.8-.3-7.9-.5-13.9-.5-17.8s.3-.9.9-1c1.1,0,2.7,0,4.9-.2.5,0,1.4-.1,2.9-.3,1.2-.2,2.1-.2,2.8-.2s.7.4.7,1.2c0,1.8,0,4.4-.2,7.9-.2,3.5-.2,6.1-.2,7.9v12.6c0,.7.1,1,.4,1,.8-.7,2-1.6,3.5-2.9,5.5-4.2,10.7-6.3,15.6-6.3s8.8,1.2,11.8,3.7c3.3,2.7,5,6.4,5,11.1ZM275.2,389.1c0-4.7-3-7-9-7s-9.6,3-15.2,9v7.3c2.6.5,5.8.7,9.6.7s7-.7,9.7-2.1c3.3-1.8,5-4.4,5-7.9Z"/>
    <path class="st24" d="M318.4,357.6c-1.7.6-2.8,1.4-3.5,2.4-.7,1-1,2.5-1,4.4v43.7c0,2.9.4,4.9,1.2,6.1.6,1,1.7,1.7,3.4,2.1v5.4c-7.2-.6-13.3-3.3-18.2-8.2-6.3-6.3-9.5-15.1-9.5-26.4s.8-10.8,2.5-15.4c1.7-4.6,4.2-8.5,7.4-11.6,2.5-2.4,5.2-4.3,8.1-5.6,2.9-1.3,6.1-2,9.6-2.1v5.3ZM322.4,357.6v-5.3c3.5.2,6.7.9,9.6,2.1,2.9,1.3,5.6,3.1,8.1,5.6,6.6,6.5,10,15.5,10,27s-3.2,20.1-9.5,26.4c-4.9,4.9-11,7.6-18.2,8.2v-5.4c.8-.2,1.5-.4,2-.8.5-.3.9-.8,1.3-1.3.9-1.3,1.3-3.4,1.3-6.1v-43.7c0-1.7-.3-3.1-.9-4.1-.4-.7-.9-1.2-1.4-1.6s-1.3-.8-2.3-1.1Z"/>
    <path class="st12" d="M356.6,420.3v-4l5.7-2.3c.5-.2.9-.5,1.2-.8.3-.3.5-.7.5-1.3v-30.4c0-1.2-.1-1.9-.4-2.4-.3-.4-.7-.8-1.2-1l-6.3-2.8v-4.1l20-2.3v10.5h.5c2-3.1,4-5.4,5.7-6.9,1.8-1.6,3.5-2.6,5.1-3.2,1.6-.5,3.2-.8,4.7-.8s3,.2,4.5.5c1.6.4,3,1.1,4.3,2.2v14h-9.2l-1.3-3.3c-.2-.7-.8-1.3-1.6-1.9-.8-.6-1.7-.9-2.8-.9s-2.4.3-3.5.8c-1.1.5-2,1.2-3,2-.9.9-1.9,1.8-2.9,2.9v27.1c0,1,.6,1.7,1.7,2.1l7.7,2.3v4h-29.6Z"/>
    <path class="st11" d="M407.8,391.1v-10.6c7.5-.2,13.8-1.3,18.7-3.1l-.7,11.4-.7,13.2c3.2-5.2,5.3-9.2,6.4-11.9,1.1-2.8,2.1-6.8,2.9-11.8,4.2.3,10.1.8,17.8,1.4-.6,2.8-1.5,9.6-2.7,20.3l-1.6,16.8c-.5,4.8-1,8.3-1.6,10.4-.7,2.3-2.1,5-4.3,8.1-2.3,3.3-5.6,7.2-9.8,11.7-10.8-1-19-3.5-24.8-7.6l-2.9-7c1.5-2.5,3.6-5.5,6.3-8.9,1.8,2.3,4.5,3.8,8,4.7,3.6.9,7.8,1.7,12.8,2.5-.7-7.9-1-14.2-1-18.7s.1-6.1.3-9.9l-11.6,14.9c-1.3,1.6-2,3.1-2.3,4.6-2.7-.3-5.3-1.1-7.7-2.2-.3-2.6-.6-5.4-.8-8.3-.2-2.2-.4-5.4-.6-9.7-.2-3.6-.3-6.9-.3-10.1Z"/>
  </g>
  <rect class="st3" x="461.9" y="103" width="179.1" height="175.8" rx="7.7" ry="7.7"/>
  <path class="st4" d="M551.5,228.8c-19.4,0-29-13.5-29-40.5s9.7-41.7,29-41.7,29,13.9,29,41.7-9.7,40.5-29,40.5ZM551.5,220.2c12.8,0,19.2-10.6,19.2-31.9s-6.4-33-19.2-33-19.2,11-19.2,33,6.4,31.9,19.2,31.9Z"/>
  <rect class="st2" x="560.4" y="296.1" width="179.1" height="175.8" rx="7.7" ry="7.7"/>
  <text class="st6" transform="translate(607.3 420.8)"><tspan x="0" y="0">V</tspan></text>
  <text/>
  <text class="st14" transform="translate(512 420.3)"><tspan class="st20" x="0" y="0">o</tspan><tspan class="st8" x="40.6" y="0" xml:space="preserve">        </tspan></text>
  <text class="st15" transform="translate(752.6 420.3) scale(1.3 1.2)"><tspan x="0" y="0">n</tspan></text>
  <text class="st16" transform="translate(825.4 420.3) scale(1 1.2)"><tspan x="0" y="0">s</tspan></text>
</svg>