<?xml version="1.0" encoding="UTF-8"?>
<svg id="Layer_1" xmlns="http://www.w3.org/2000/svg" version="1.1" viewBox="0 0 1024 768">
  <!-- Generator: Adobe Illustrator 29.8.3, SVG Export Plug-In . SVG Version: 2.1.1 Build 3)  -->
  <defs>
    <style>
      .st0 {
        fill: #75d6c4;
      }

      .st1 {
        font-family: Impact, Impact;
      }

      .st1, .st2, .st3, .st4, .st5, .st6, .st7 {
        font-size: 100px;
      }

      .st1, .st8 {
        fill: #acd675;
      }

      .st9 {
        fill: #e07eb2;
        stroke: #e07eb2;
      }

      .st9, .st10, .st11, .st12, .st13, .st14 {
        stroke-miterlimit: 10;
      }

      .st2 {
        fill: #c4d675;
        font-family: ShowcardGothic-Reg, 'Showcard Gothic';
      }

      .st15 {
        fill: #757ad6;
      }

      .st10 {
        fill: #e29b7e;
        stroke: #e29b7e;
      }

      .st11 {
        font-family: Constantia-BoldItalic, Constantia;
        font-style: italic;
        stroke: #ab6263;
      }

      .st11, .st3, .st16 {
        font-weight: 700;
      }

      .st11, .st13, .st14 {
        fill: #f2ed71;
      }

      .st11, .st14 {
        font-size: 115.3px;
        stroke-width: 2px;
      }

      .st17 {
        fill: #75d697;
      }

      .st3 {
        fill: #d67575;
        font-family: AgencyFB-Bold, 'Agency FB';
      }

      .st18 {
        fill: #75c1d6;
      }

      .st12 {
        fill: #7ed0e2;
        stroke: #7ed0e2;
      }

      .st19 {
        fill: #759dd6;
      }

      .st20 {
        fill: #c975d6;
      }

      .st13 {
        stroke: #629daa;
        stroke-width: 3px;
      }

      .st21 {
        fill: #88d675;
        font-family: Bauhaus93, 'Bauhaus 93';
      }

      .st22 {
        fill: #d67d75;
      }

      .st5 {
        font-family: ArialRoundedMTBold, 'Arial Rounded MT Bold';
      }

      .st5, .st23 {
        fill: #d6bc75;
      }

      .st14 {
        font-family: EngraversMT, 'Engravers MT';
        stroke: #ae658c;
      }

      .st24 {
        fill: #d675aa;
      }

      .st6 {
        fill: #d6d275;
        font-family: Elephant-Regular, Elephant;
      }

      .st25 {
        fill: #d6758f;
        font-family: MaturaMTScriptCapitals, 'Matura MT Script Capitals';
        font-size: 105px;
      }

      .st26 {
        fill: #75a7d6;
      }

      .st7 {
        fill: #d275d6;
        font-family: Stencil, Stencil;
      }

      .st27 {
        fill: #75b2d6;
        font-family: MicrosoftNewTaiLue, 'Microsoft New Tai Lue';
      }

      .st16 {
        fill: #d69275;
        font-family: MyanmarText-Bold, 'Myanmar Text';
      }
    </style>
  </defs>
  <rect class="st9" x="543.2" y="504.9" width="179.1" height="175.8" rx="7.7" ry="7.7"/>
  <text class="st14" transform="translate(582.4 629.6)"><tspan x="0" y="0">O</tspan></text>
  <text class="st1" transform="translate(160.7 -602.5)"><tspan x="0" y="0" xml:space="preserve">          </tspan></text>
  <text/>
  <rect class="st12" x="189.4" y="104.2" width="179.1" height="175.8" rx="7.7" ry="7.7"/>
  <path class="st13" d="M280.3,234.8c-19.4,0-29-13.5-29-40.5s9.7-41.7,29-41.7,29,13.9,29,41.7-9.7,40.5-29,40.5ZM280.3,226.2c12.8,0,19.2-10.6,19.2-31.9s-6.4-33-19.2-33-19.2,11-19.2,33,6.4,31.9,19.2,31.9Z"/>
  <rect class="st10" x="515.6" y="103.5" width="179.1" height="175.8" rx="7.7" ry="7.7"/>
  <text class="st11" transform="translate(562.5 228.2)"><tspan x="0" y="0">V</tspan></text>
  <text class="st5" transform="translate(797.4 -477.7)"><tspan x="0" y="0" xml:space="preserve">        </tspan></text>
  <text/>
  <g>
    <path class="st22" d="M406.9,203.5c0-.9-.5-1.6-1.4-2.2-.9-.6-2-.9-3.3-.9-2.4,0-4.7.7-6.6,2.1-2,1.4-3.5,3.5-4.7,6.1-1.1,2.7-1.7,5.7-1.7,9s.7,5.9,2,8.4c1.3,2.5,3.1,4.5,5.3,5.9,2.2,1.4,4.7,2.1,7.3,2.1s4.5-.5,6.9-1.5c2.4-1,4.3-2.3,5.7-3.8l1.7,2.3c-2.6,3.7-5.7,6.6-9.3,8.5-3.6,2-7.3,3-11,3s-6.7-.9-9.9-2.8c-3.1-1.9-5.6-4.5-7.5-7.7-1.9-3.2-2.8-6.8-2.8-10.6s.6-6.1,1.7-8.9c1.1-2.8,2.8-5.4,4.9-7.6,2.1-2.2,4.7-4,7.6-5.2s6.2-1.9,9.7-1.9,5.5.4,7.8,1.3c2.3.9,4.2,2.1,5.5,3.6,1.4,1.5,2,3.2,2,5s-.6,2.9-1.8,4c-1.2,1-2.6,1.6-4.2,1.6s-2.7-.5-3.6-1.5c-1-1-1.4-2.1-1.4-3.3s.1-1,.4-2.2c.3-1.3.4-2.1.4-2.6ZM393.9,200.7c-3.1,1.2-5.8,2.8-7.9,4.8-2.2,2.1-3.8,4.4-5,7.2-1.1,2.7-1.7,5.5-1.7,8.3s.9,7.2,2.7,10.3c1.8,3,4.2,5.4,7.2,7.1,3,1.7,6,2.5,9.1,2.5,4.5,0,8.7-1.5,12.6-4.4-4.3,1.4-7.7,2.1-10.3,2.1s-6.4-.7-9.1-2.2c-2.8-1.5-5-3.6-6.6-6.2-1.6-2.7-2.4-5.6-2.4-8.9s1-7.5,3-11c2-3.5,4.8-6.6,8.5-9.4ZM407.6,208.3c0,1,.4,1.8,1.2,2.3.8.5,1.7.8,2.6.8s1.1-.1,2.4-.4c-2-.4-3-1.5-3-3.1s0-.5.2-1.1c.1-.6.2-1.1.2-1.6,0-1.8-1.3-3.2-3.8-4.1.7,1,1.1,1.9,1.1,2.8s-.1,1.3-.4,2.2c-.3.9-.4,1.7-.4,2.1Z"/>
    <path class="st24" d="M424.2,181.2h-1.9c-.6,0-.9,0-1-.2-.1-.1-.2-.5-.2-1.1v-3.5c0-.7,0-1.1.2-1.3s.6-.3,1.3-.4c2.3-.4,4.7-1.7,7.1-3.9,2.4-2.2,3.8-4.7,4.2-7.2.2-.9.4-1.5.6-1.7.2-.2.7-.3,1.5-.3h3.2c.8,0,1.3.6,1.3,1.7v11.2h3c1.1,0,1.7.5,1.7,1.6v3.5c0,1-.6,1.6-1.7,1.6h-3v50.6c0,1.7.8,3,2.3,3.7.7.4,1.2.8,1.5,1.3.2.5.3,1.5.3,2.8s0,1.3-.2,1.4c-.1,0-.5.1-1.2.1h-15.4c-2.3-2.1-3.5-5.2-3.5-9.4v-50.6Z"/>
    <path class="st0" d="M499.4,194.2l2.4.6c-2.4,2.6-4,4.5-4.6,5.9-.7,1.4-1,3.2-1,5.5v19.6c0,3.2.3,5.3,1,6.1.7.8,1.5,1.2,2.4,1.2s1,0,1.5-.3c.3-.1,1.3-.7,2.9-1.6l1.7,1.4-14.3,8.4c-3.5-1.8-5.8-3.5-7-4.9-1.2-1.5-1.8-3.5-2-6.1l-20.5,11c-7.7-4.3-11.6-8.5-11.6-12.7s.8-5.4,2.5-7.9c2.2-3.2,6-7,11.4-11.3l-8.1-11.8.9-1.2c1.7,0,3,.1,3.9.1,5.3,0,9.9-1.4,14-4.3,3.3,1.3,6.8,2.3,10.7,3.1,3.9.8,6.8,1.2,8.9,1.2s1.7-.1,2.2-.3,1.3-.9,2.5-2ZM482.5,202.9l-23-4.8,8.2,11.8,14.8,4.7v-11.8ZM482.5,216.6l-16.3-5.2c-2.5,3.7-3.8,7-3.8,9.8,0,5,3.3,9.1,9.9,12.3l10.2-5.6v-11.3Z"/>
    <path class="st23" d="M717.8,182c-1.9,0-3.4-.6-4.8-1.7-1.3-1.1-2-2.8-2-4.8s.7-3.4,2-4.7,2.9-1.8,4.7-1.8,3.3.6,4.6,1.7c1.3,1.1,2,2.7,2,4.8s-.7,3.7-2,4.8c-1.3,1.2-2.8,1.7-4.6,1.7ZM724.4,195.8v38.5c0,2.7-.6,4.7-1.9,6.1s-2.9,2.1-4.8,2.1-3.5-.7-4.8-2.1-1.8-3.4-1.8-6v-38.1c0-2.6.6-4.6,1.8-6,1.2-1.3,2.8-2,4.8-2s3.6.7,4.8,2c1.3,1.3,1.9,3.2,1.9,5.6Z"/>
    <path class="st19" d="M763.1,205.1v20.5c0,11.1-5.4,16.4-14.5,16.4s-14.3-5.4-14.3-16.3v-21c0-10.6,5.9-15.8,14.6-15.8s14.2,5.7,14.2,16.1ZM743.3,204.6v21.4c0,4.8,1.5,8,5.4,8s5.3-2.6,5.3-8.2v-21.3c0-4.4-1.3-7.6-5.4-7.6s-5.4,2.7-5.4,7.7Z"/>
  </g>
  <text class="st4" transform="translate(126.1 434.1)"><tspan class="st27" x="0" y="0">o</tspan><tspan class="st16" x="58.6" y="0">m</tspan><tspan class="st21" x="150.2" y="0">H</tspan></text>
  <text class="st2" transform="translate(338.1 434.1) scale(1 .6)"><tspan x="0" y="0">u</tspan></text>
  <text transform="translate(511.7 425.2)"><tspan><tspan class="st25" x="0" y="0">y</tspan><tspan class="st7" x="51.4" y="0">O</tspan><tspan class="st6" x="114.9" y="0">Y</tspan><tspan class="st3" x="189.2" y="0">o</tspan></tspan></text>
  <g>
    <path class="st15" d="M288.1,628.2h-15.2v-18.2h14.2c3.6,4.6,7.6,7,12,7s6.5-1.1,6.5-3.2-.5-2-1.4-2.5c-1-.6-3.6-1.6-7.8-2.8-3.4-1.1-7.1-2.4-11.2-3.8-3.5-1.2-6.3-2.8-8.4-4.6-2.1-1.9-3.5-3.7-4.2-5.4-.8-1.8-1.2-4.1-1.2-7,0-6.3,1.9-11,5.6-14,3.7-3,8.3-4.4,14-4.4s10.8,1.3,14.7,4v-3h15v16.7h-13.9c-3.5-4-7.6-6-12.3-6s-5.6,1.2-5.6,3.6.6,1.9,1.7,2.2c.9.4,4.1,1.2,9.4,2.5,6,1.5,10.7,3.1,14.1,4.6,3.4,1.5,5.9,3.6,7.6,6.1,1.7,2.5,2.5,5.6,2.5,9.3,0,6.6-2,11.5-6.1,14.7-4,3.1-9,4.7-14.9,4.7s-10.9-1.3-15-3.9v3.5Z"/>
    <path class="st26" d="M330.9,576.3h-2.3c-.3-.2-.5-.4-.5-.6s.2-.4.5-.6h13.1c.2,0,.3,0,.4.2.1.1.2.3.2.4s0,.3-.2.4c-.1.1-.3.2-.4.2h-2.2l4.4,37.5,4.2-29.5c.2-1.1.2-2.1.2-3,0-1.8-.2-3-.7-3.7-.5-.7-1.2-1.1-2.1-1.2l-.7-.2c0-.1-.1-.3-.1-.5s0-.4.1-.5c0-.1.2-.2.4-.2h7.4c.2,0,.3,0,.5.2.1.1.2.3.2.5s0,.3-.1.4c0,0-.3.2-.5.2-.5.1-.8.5-1.2,1-.9,1.5-1.5,3.5-1.9,5.9l-7.3,51.4c-.5,3.7-1.6,6.5-3.3,8.3-1.7,1.8-3.4,2.8-5.2,2.8s-2.6-.6-3.7-1.8-1.6-2.8-1.6-4.8.4-3,1.2-3.9,1.8-1.4,2.9-1.4,2,.4,2.8,1.3c.8.8,1.2,1.9,1.2,3.1,0,1.9-.8,3.4-2.5,4.5-.5.3-.7.6-.7.9s0,.4.3.5c.2.1.4.2.8.2,1.2,0,2.4-.7,3.5-2,1.5-1.8,2.6-4.7,3.3-8.7l1-6h-5.3l-6-51.2Z"/>
    <path class="st20" d="M379.7,570.3v6.9c7.6-5.2,14.5-7.8,20.7-7.8s7.1.9,9.6,2.6c2.5,1.8,4.2,3.9,5,6.4.8,2.5,1.2,6.3,1.2,11.1v27.9h10.1v10h-21.9v-37.4c0-4.3-.7-7.2-2-8.5-1.4-1.3-3-2-5-2-5.2,0-11.1,2.4-17.7,7.3v30.6h10.4v10h-32.7v-10h10.5v-37.2h-10.5v-10h22.3Z"/>
    <path class="st18" d="M479.7,594c0,8.5-3.9,14.1-11.8,17,0,1.7,3.3,6.8,9.8,15.5,0,.5-1.6.8-4.9,1-2.1,0-3.8.1-4.8.1-2.3,0-3.8-.5-4.3-1.5-1.5-2.6-3.9-6.4-7.2-11.4-.4-.6-3.9-.8-10.6-.7h-1.9v12.1c0,1-.4,1.5-1.1,1.5-1,0-2.6,0-4.6,0-2,0-3.6,0-4.6,0s-1.1-.6-1.1-1.9v-30.4c0-4-.2-9.9-.5-17.8-.3-7.9-.5-13.9-.5-17.8s.3-.9.9-1c1.1,0,2.7,0,4.9-.2.5,0,1.4-.1,2.9-.3,1.2-.2,2.1-.2,2.8-.2s.7.4.7,1.2c0,1.8,0,4.4-.2,7.9-.2,3.5-.2,6.1-.2,7.9v12.6c0,.7.1,1,.4,1,.8-.7,2-1.6,3.5-2.9,5.5-4.2,10.7-6.3,15.6-6.3s8.8,1.2,11.8,3.7c3.3,2.7,5,6.4,5,11.1ZM467.9,596.3c0-4.7-3-7-9-7s-9.6,3-15.2,9v7.3c2.6.5,5.8.7,9.6.7s7-.7,9.7-2.1c3.3-1.8,5-4.4,5-7.9Z"/>
    <path class="st17" d="M485.9,627.5v-4l5.7-2.3c.5-.2.9-.5,1.2-.8.3-.3.5-.7.5-1.3v-30.4c0-1.2-.1-1.9-.4-2.4-.3-.4-.7-.8-1.2-1l-6.3-2.8v-4.1l20-2.3v10.5h.5c2-3.1,4-5.4,5.7-6.9,1.8-1.6,3.5-2.6,5.1-3.2,1.6-.5,3.2-.8,4.7-.8s3,.2,4.5.5c1.6.4,3,1.1,4.3,2.2v14h-9.2l-1.3-3.3c-.2-.7-.8-1.3-1.6-1.9-.8-.6-1.7-.9-2.8-.9s-2.4.3-3.5.8-2,1.2-3,2-1.9,1.8-2.9,2.9v27.1c0,1,.6,1.7,1.7,2.1l7.7,2.3v4h-29.6Z"/>
    <path class="st8" d="M736.7,627.5v-4.3l6-2.5c.5-.3.9-.5,1.3-.8.3-.3.5-.7.5-1.3v-32.4c0-.6-.2-1.1-.5-1.4s-.8-.5-1.2-.8l-5.9-2.5v-4.4l22-2.4v8.1h.7c2-2.6,4-4.4,6-5.7,2-1.2,3.9-2,5.9-2.3,1.9-.4,3.8-.5,5.6-.5,3.2,0,6.1.6,8.7,1.8,2.6,1.2,4.7,3.1,6.2,5.6,1.5,2.5,2.3,5.9,2.3,9.9v26.7c0,.7.2,1.2.5,1.5.3.3.8.6,1.3.8l5.2,2.5v4.3h-29.1v-4.3l4.7-2.5c.5-.3,1-.6,1.4-.9s.5-.8.5-1.5v-20.6c0-2.9-.2-5.3-.7-7.3-.4-2-1.3-3.5-2.6-4.5-1.3-1-3.2-1.6-5.7-1.6s-3.4.2-5.3.7c-1.9.5-3.4,1.6-4.6,3.4v30.1c0,.6.2,1,.5,1.3.3.2.8.5,1.3.9l4.3,2.5v4.3h-29.3Z"/>
    <path class="st8" d="M828,548.5v10.3h-20.3v-10.3h20.3ZM828,562.7v64.8h-20.3v-64.8h20.3Z"/>
  </g>
</svg>