<?xml version="1.0" encoding="UTF-8"?>
<svg id="Layer_1" xmlns="http://www.w3.org/2000/svg" version="1.1" viewBox="0 0 538.6 127.6">
  <!-- Generator: Adobe Illustrator 29.8.3, SVG Export Plug-In . SVG Version: 2.1.1 Build 3)  -->
  <defs>
    <style>
      .st0 {
        fill: #e17eb3;
        stroke: #e17eb3;
      }

      .st0, .st1, .st2, .st3, .st4, .st5 {
        stroke-miterlimit: 10;
      }

      .st1 {
        font-family: Bauhaus93, 'Bauhaus 93';
        font-size: 71px;
        stroke: #ae658d;
      }

      .st1, .st2, .st4 {
        fill: #f3ed71;
        stroke-width: 2px;
      }

      .st2 {
        stroke: #629daa;
      }

      .st3 {
        fill: #7ed0e2;
        stroke: #7ed0e2;
      }

      .st4 {
        stroke: #ab6263;
      }

      .st5 {
        fill: #e29c7e;
        stroke: #e29c7e;
      }
    </style>
  </defs>
  <rect class="st5" x="16.7" y="8.1" width="110.3" height="108.3" rx="7.7" ry="7.7"/>
  <rect class="st3" x="133.4" y="8.1" width="110.3" height="108.3" rx="7.7" ry="7.7"/>
  <rect class="st0" x="249.2" y="8.1" width="110.3" height="108.3" rx="7.7" ry="7.7"/>
  <path class="st4" d="M71.6,71.2l14.6-25.7c.7-1.3,1.3-2.4,1.8-3.3.5-.9.7-1.5.7-1.9s-.4-.8-1.2-1.1l-3.3-.9.3-1.8c3.1,0,6,.1,8.6.1s5,0,7.4-.1l-.2,1.8-3.8,1.1c-1.1.4-2,.9-2.6,1.7-.6.7-1.1,1.5-1.6,2.2l-24.8,41.9-3.7.3-7.2-41.7c-.1-.8-.3-1.5-.4-2-.2-.5-.3-1-.5-1.3-.4-.6-1-1-1.8-1.2l-3.7-1,.2-1.8c3.8,0,7.3.1,10.7.1s6.9,0,10.9-.1l-.2,1.8-3.4,1c-.5.2-.9.4-1.2.6-.3.3-.5.8-.5,1.5s.2,2.1.5,4.2l4.2,25.8Z"/>
  <path class="st2" d="M188.6,85.6c-11.9,0-17.9-8.3-17.9-25s6-25.7,17.9-25.7,17.9,8.6,17.9,25.7-6,25-17.9,25ZM188.6,80.3c7.9,0,11.8-6.6,11.8-19.7s-3.9-20.4-11.8-20.4-11.8,6.8-11.8,20.4,3.9,19.7,11.8,19.7Z"/>
  <text class="st1" transform="translate(276.3 84.9)"><tspan x="0" y="0">O</tspan></text>
</svg>