<?xml version="1.0" encoding="UTF-8"?>
<svg id="Layer_1" xmlns="http://www.w3.org/2000/svg" version="1.1" viewBox="0 0 907.1 155.9">
  <!-- Generator: Adobe Illustrator 29.8.3, SVG Export Plug-In . SVG Version: 2.1.1 Build 3)  -->
  <defs>
    <style>
      .st0 {
        fill: #74aebb;
      }
    </style>
  </defs>
  <path class="st0" d="M8.8,115.7V11.7h43.1c30.6,0,45.9,17.4,45.9,52.1s-15.9,51.9-47.6,51.9H8.8ZM38.9,107.1h7.9c7.3,0,12.3-3.1,15.1-9.4,2.8-6.3,4.2-17.6,4.2-34s-1.4-27.7-4.2-34c-2.8-6.2-7.8-9.4-15.1-9.4h-7.9v86.8Z"/>
  <path class="st0" d="M115,22V7.5h65.8v14.5h-65.8ZM115,115.7v-14.5h65.8v14.5h-65.8ZM139.9,115.7V7.5h15.8v108.2h-15.8Z"/>
  <path class="st0" d="M206.4,125.2c6.6,2.2,12.3,3.8,17.3,4.7,5,.9,9.3,1.3,13,1.3s5.1-.3,7.3-.9c2.2-.6,3.9-1.3,5.3-2.2,1.3-.9,2.4-2,3.4-3.3.9-1.3,1.7-2.8,2.2-4.4.5-1.6.9-3.5,1.1-5.6.2-2.1.4-5.1.5-8.8-2,1.8-3.7,3.2-5.1,4.3s-3.2,2.1-5.4,3.1-4.5,1.8-7,2.3-5.2.8-8,.8c-6.4,0-12.3-1.5-17.4-4.5-5.2-3-9-7.2-11.6-12.6-2.5-5.4-3.8-11.2-3.8-17.4s1.4-14,4.1-20c2.7-5.9,6.7-11,11.8-15.1,5.1-4.1,10.7-7,16.8-8.5,6.1-1.6,13-2.4,20.7-2.4s9.4.3,15,.8,13.3,1.7,23.1,3.5l-1.8,25.1-1.6,27.6c-.1,2-.2,3.6-.2,4.9l-.6,24.8c-.1,3.1-.5,6.1-1.1,9-.6,2.6-1.5,5-2.8,7.2-1.3,2.2-2.9,4.2-4.9,5.9-2.1,1.8-4.5,3.3-7.2,4.3-2.7,1.1-5.9,2-9.5,2.7-4,.7-8.1,1.1-12.4,1.1s-5.4-.1-9-.3-7.2-.6-10.9-1-7-.9-9.7-1.4c-2.7-.5-6.2-1.2-10.3-2.2l-.5-10.1c0-1.9-.3-6.1-.8-12.6ZM258.6,59.3c-3.1-.6-6-.9-8.4-.9-4.6,0-8.5.9-11.8,2.6s-5.9,4.4-7.7,7.9-2.7,7.1-2.7,10.9.5,5.3,1.4,7.6c1,2.3,2.6,4.2,4.8,5.5,2.2,1.3,4.6,2,7.1,2,3.6,0,6.9-1.3,9.7-4,2.8-2.6,4.8-6.3,5.8-10.8,1.1-4.6,1.7-11.5,1.8-20.8Z"/>
  <path class="st0" d="M323.1,50.3v17.1c0,0,0,16,0,16v21.2c0,3.7.5,6,1.7,7,1.2,1,3,1.5,5.4,1.6,2.8.2,4.2.7,4.2,1.8s-.5,1.2-1.6,1.2-.9,0-1.4,0c-4.7-.6-9.1-.9-13.2-.9-6.5,0-11,.2-13.5.6-.5.1-1,.2-1.5.2-1.2,0-1.8-.5-1.8-1.4s1.4-1.5,4.2-1.9c2.8-.4,4.6-1,5.4-1.9.8-.9,1.2-3.4,1.2-7.6l.5-31.5c0-8.4-.6-13.4-1.9-15-1.3-1.5-3.7-2.4-7.4-2.5-1.2,0-1.8-.4-1.8-1.2s.2-.8.6-1.1c.4-.3,3.4-.6,9.1-1,5.6-.4,9.5-.6,11.7-.7ZM314.6,13c1.9,0,3.7.7,5.2,2.1,1.5,1.4,2.3,3,2.3,4.6s-.6,3.7-1.9,5.1c-1.2,1.4-3,2.1-5.1,2.1s-3.7-.6-5.2-1.9c-1.5-1.2-2.3-2.9-2.3-5.1s.6-3.8,1.9-5.1c1.3-1.3,3-2,5.1-2Z"/>
  <path class="st0" d="M387.2,101.7c0,1.1-.1,2.6-.3,4.6-.3,2.4-.4,3.9-.5,4.6,0,.9-.1,1.5-.2,1.7-.2.4-.7.7-1.4,1.1-4.2,2-10.7,3-19.7,3s-17.8-5.4-17.8-16.1.1-10.8.3-19.5c.2-8.7.3-15.1.3-19.5s-1-3.2-3.1-3.4c-1.9,0-3.7,0-5.6,0-1.1-.3-1.6-2.3-1.6-6.2s.1-3,.3-4.6c.2-1.2,1-2,2.4-2.2,1.3,0,2.5,0,3.7,0,2.3-.1,3.5-1.1,3.5-3.1s0-5.1-.2-9.3c-.1-4.2-.2-7.3-.2-9.4,0-3.7.7-5.6,2.1-5.6s5.2.8,14.3,2.4c1.2.2,1.8.7,1.8,1.7,0,2.2-.2,5.6-.5,10.1-.3,4.5-.5,7.8-.5,10.1s.7,2.2,2.1,2.2h18.3c.9,0,1.3.3,1.3.9s0,1.6-.3,2.9c-.2,1.3-.3,2.3-.3,3s0,1.9,0,3.5c0,1.6,0,2.7,0,3.5s-.7,1.4-2.1,1.4c-2,0-5.1-.1-9.2-.4-4.1-.3-7.2-.4-9.2-.4s-.7,1.4-.9,4.3c-.3,3.6-.4,8.7-.4,15.2v11.3c0,4.4.4,7.4,1.2,9.1,1.2,2.6,3.7,4,7.5,4s3.9-.3,6.9-1,5.3-1,6.8-1,.9.5.9,1.4Z"/>
  <path class="st0" d="M425.2,69.5h25.1c1.4,0,3.4.3,5.9.9v-9.1c-.1-1.8-.8-3.3-2-4.5-1.2-1.2-2.8-1.9-4.5-1.9h-24.3c-1.7,0-3.2-.6-4.5-1.9-1.3-1.3-1.9-2.8-1.9-4.5s.6-3.3,1.9-4.5c1.2-1.2,2.8-1.9,4.5-1.9h24.3c5.3,0,9.8,1.9,13.5,5.6,3.7,3.7,5.7,8.3,5.8,13.6l1.6,47.9c0,1.8-.6,3.3-1.9,4.5-1.3,1.2-2.8,1.9-4.5,1.9s-3.4-.6-4.6-1.9c-1.3-1.2-1.9-2.8-1.9-4.5l-10.8,6.4h-21.7c-5.4,0-10-1.9-13.7-5.6-3.8-3.8-5.6-8.3-5.6-13.7v-7.5c0-5.3,1.9-9.9,5.7-13.7,3.8-3.8,8.4-5.7,13.7-5.7ZM457.2,94.5l-.4-5.4c0-1.8-.7-3.4-1.9-4.6-1.2-1.2-2.7-1.8-4.5-1.8h-25.2c-1.8,0-3.3.6-4.5,1.9-1.2,1.2-1.9,2.8-1.9,4.5v7.2c0,1.7.6,3.2,1.9,4.5,1.3,1.3,2.8,1.9,4.5,1.9h18.1l14-8.2Z"/>
  <path class="st0" d="M489.1,115.7v-5.1l10.5-2.8c.8-.2,1.4-.6,2-1.1.5-.5.8-1.3.8-2.3V22.2c0-1-.3-1.8-.9-2.4s-1.3-1-2.1-1.3l-10.7-4v-4.9l27.5-1.2v96c0,1,.3,1.7.9,2.3.6.5,1.2.9,2,1.1l10.1,2.8v5.1h-40Z"/>
  <path class="st0" d="M661.8,103.1l-5.3-14h-45.4l-5.3,14.3c-2.1,5.6-3.9,9.4-5.3,11.3-1.5,2-3.9,2.9-7.2,2.9s-5.4-1-7.5-3.1c-2.2-2.1-3.3-4.4-3.3-7.1s.3-3.1.8-4.7c.5-1.6,1.3-3.9,2.5-6.8l28.6-72.5c.8-2.1,1.8-4.6,2.9-7.5,1.1-2.9,2.4-5.3,3.7-7.3,1.3-1.9,3-3.5,5.1-4.7,2.1-1.2,4.7-1.8,7.8-1.8s5.8.6,7.9,1.8c2.1,1.2,3.8,2.7,5.1,4.6,1.3,1.9,2.4,3.9,3.3,6.1.9,2.2,2,5,3.4,8.6l29.2,72.1c2.3,5.5,3.4,9.5,3.4,12s-1.1,5-3.2,7.1c-2.2,2.2-4.8,3.2-7.8,3.2s-3.3-.3-4.6-1c-1.3-.6-2.3-1.5-3.2-2.6-.9-1.1-1.8-2.8-2.8-5-1-2.3-1.8-4.3-2.6-6ZM617,72.1h33.4l-16.8-46.1-16.5,46.1Z"/>
  <path class="st0" d="M737.4,66h-10v-15.3l-18.7.6v64.4h-10.1V41.6h10.1v2.1c3.4-.5,6.7-1,10.1-1.6,4.1-.6,7.4-.9,10.1-.9,5.6,0,8.4,2.8,8.4,8.3v16.5Z"/>
  <path class="st0" d="M774.1,38.5v17.4h18.1v3.9h-18.1v37.7c0,5.5.4,9.3,1.1,11.3.7,2,2.7,3,5.9,3s4.8-.8,7-2.4c2.3-1.6,4-4.1,5.1-7.5h3.3c-2.3,9.9-9.4,14.8-21.3,14.8s-8.6-.9-11-2.7c-2.3-1.8-3.8-4-4.3-6.7-.5-2.6-.8-6.2-.8-10.7v-36.8h-13.6v-3.9h13.6v-16.1c5,0,10-.4,14.9-1.3Z"/>
</svg>