<?xml version="1.0" encoding="UTF-8"?>
<svg id="Layer_1" xmlns="http://www.w3.org/2000/svg" version="1.1" viewBox="0 0 538.6 226.8">
  <!-- Generator: Adobe Illustrator 29.8.3, SVG Export Plug-In . SVG Version: 2.1.1 Build 3)  -->
  <defs>
    <style>
      .st0 {
        fill: #5583ab;
      }
    </style>
  </defs>
  <path class="st0" d="M38.6,170.2v25c.1,4.6.3,7.6.6,9.1.3,1.5.7,2.4,1.2,2.9.5.4,1.5.8,3,1.1,1.5.3,5.1.6,10.8.7l.7.4v3.1l-.7.5c-13.8-.3-21.6-.5-23.4-.5s-9.5.2-23.3.5l-.7-.5v-3.1l.7-.4c5.1-.2,8.5-.4,10.2-.6,1.7-.3,2.8-.6,3.3-1,.6-.4,1-1.3,1.4-2.5.4-1.3.6-4.1.6-8.5v-13.4c0,0,0-29.1,0-29.1l-.2-12.2c0-4.8-.2-7.8-.4-9.2-.2-1.4-.6-2.3-1.1-2.8-.5-.5-1.5-.8-3-1.1-1.5-.3-5.1-.5-10.8-.7l-.7-.4v-3.1l.7-.4c23,.3,36.5.4,40.4.4,12.9,0,26.2-.1,39.8-.4l.7.4c-.9,2.1-1.4,4.5-1.7,7.1-.3,2.7-.6,6.4-.9,11.3l-.7.5h-3.8l-.6-.5c-.1-.3-.4-1.9-.7-4.8-.3-2.3-.7-4.4-1.3-6.3-5.7-1.5-13.5-2.2-23.4-2.2s-9.7.3-15.7.8c-.6,3.3-.9,11.2-.9,23.9v10.9c6.9,0,11.6.1,14.1.1,4.6,0,8.6-.1,11.9-.4,3.3-.3,5.3-.5,6-.8.7-.3,1.2-.7,1.5-1.4.4-.7.7-2.2,1-4.6l.5-3.4.6-.5h4.2l.7.6-.6,13.8c0,1.6,0,3.9.2,6.9.2,3.4.3,6.1.3,8l-.7.5h-4.1l-.6-.5-.3-5.3c-.2-2.1-.4-3.6-.8-4.6-.4-1-1-1.6-1.9-1.9-.9-.3-2.8-.6-5.8-.8-3-.3-7.6-.4-13.8-.4s-9.6,0-12.4.2Z"/>
  <path class="st0" d="M141.6,214.2c-11.1,0-19.8-4.6-25.9-13.7-6.1-9.1-9.2-22-9.2-38.5v-19.5c0-16.4,3.1-29.1,9.2-38.1,6.1-9,14.7-13.5,25.9-13.5s19.8,4.5,25.9,13.5c6.1,9,9.2,21.7,9.2,38.1v19.9c0,16.5-3.1,29.2-9.2,38.3-6.1,9-14.7,13.6-25.9,13.6ZM141.6,191.8c5.8,0,10.4-2.6,13.6-7.7,3.2-5.2,4.8-12.4,4.8-21.7v-19.9c0-9.3-1.6-16.5-4.8-21.6-3.2-5.1-7.7-7.6-13.6-7.6s-10.3,2.5-13.5,7.6c-3.2,5.1-4.8,12.3-4.8,21.6v19.9c0,9.3,1.6,16.6,4.8,21.7,3.2,5.2,7.7,7.7,13.5,7.7Z"/>
  <path class="st0" d="M284.7,95.3c0,1.4-.7,2.1-2,2.1-2.3,0-11.5-.5-27.5-1.6-.4,18-.5,30.6-.5,37.7s.3,21.1.9,37.9c.6,16.9.9,29.5.9,37.9s-.3,2.2-.8,2.6c-.2.1-1,.3-2.6.5-3.7.6-9,.9-16.1.9s-13.4-.3-16.5-.9c-1.7-.4-2.6-1.5-2.6-3.3,0-8.4.3-21,.9-37.8.6-16.8.9-29.4.9-37.8s-.2-18-.7-37.2c-12.2,1.4-21.9,2.1-29.1,2.1s-1.5-.4-1.5-1.1.4-3.7,1.3-8.2c1-5,1.5-8,1.6-9.1.2-3.3.4-6.7.6-10,.4-5.3,1.2-8,2.2-8s.5,0,1.3.1c9.9,1.5,24.5,2.2,43.8,2.2s15.6-.7,30.3-2c7.9-.7,11.9-1.1,12-1.1,1.2,0,1.9,0,2.1.3.2.2.3.9.4,2.1,0,1.9,0,4.6-.2,8-.1,3.8-.2,6.4-.2,8s.2,4.4.6,7.9c.4,3.5.6,6,.6,7.7Z"/>
  <path class="st0" d="M383.3,176c0,12.1-4,21.4-11.9,28-7.9,6.6-18.7,9.9-32.2,9.9s-15.8-1.5-22.3-4.4c-6.5-2.9-11.7-7.2-15.4-12.9-3.8-5.7-5.6-12.5-5.6-20.6,0-12.1,3.9-21.3,11.8-27.9,7.9-6.5,18.6-9.8,32.1-9.8s16.2,1.5,22.7,4.4c6.5,2.9,11.7,7.2,15.4,12.8s5.6,12.4,5.6,20.5ZM311.8,176c0,8.6,2.2,15.4,6.6,20.5s11.4,7.5,21.1,7.5,16.5-2.5,21-7.5c4.5-5,6.7-11.8,6.7-20.5s-2.2-15.4-6.7-20.3c-4.5-4.9-11.5-7.3-21.2-7.3s-16.7,2.4-21,7.3c-4.4,4.9-6.5,11.6-6.5,20.3Z"/>
  <path class="st0" d="M443.4,91.2c5.4,0,12.4,1.5,21.2,4.4,1,.3,1.9.5,2.5.5s2.1-.5,4.7-1.6c.8-.3,1.7-.5,2.7-.5,3.5,0,7.2,3.1,11.1,9.2,3.9,6.2,5.8,12,5.8,17.6s-.9,6-2.6,8.2c-1.8,2.2-3.9,3.4-6.4,3.4s-3.8-.5-5.1-1.4c-1.3-.9-4.2-3.7-8.6-8.3-6.3-6.5-12.4-9.8-18.5-9.8s-5.3.8-7,2.4c-1.8,1.6-2.6,3.6-2.6,6.2,0,5,4,8.9,12,11.4,10.8,3.5,17.8,6.1,20.8,7.7,13.3,7.2,20,17.8,20,31.8s-4.5,22.5-13.6,30.3c-9.3,8-21.5,12-36.5,12s-13.8-.9-21.2-2.7c-7.4-1.8-12.8-3.8-16.1-6.2-2.5-1.9-4.8-5.9-6.8-12.1-2-6.2-3-12.3-3-18.2s.5-5,1.6-6.4c1.3-1.9,3-2.8,4.9-2.8s3.9,1.1,5.7,3.4c1.1,1.3,3.7,5.4,7.8,12.3,1.9,3.3,5,6,9.2,8.1,4.2,2.1,8.6,3.2,13.1,3.2s7-.8,9.4-2.4c2.4-1.6,3.6-3.6,3.6-6.1s-.9-4.3-2.8-6c-1.9-1.7-4.9-3.2-9.2-4.7-7.5-2.6-13.2-5-17.1-7.2-3.9-2.2-7.6-4.9-11-8.2-8.3-8.1-12.4-17.4-12.4-27.7s1.1-10.1,3.2-14.9c2.1-4.8,5.2-9,9.1-12.6,8.8-8.2,19.5-12.3,32.2-12.3Z"/>
</svg>