<?xml version="1.0" encoding="UTF-8"?>
<svg id="Layer_1" xmlns="http://www.w3.org/2000/svg" version="1.1" viewBox="0 0 708.7 155.9">
  <!-- Generator: Adobe Illustrator 29.8.3, SVG Export Plug-In . SVG Version: 2.1.1 Build 3)  -->
  <defs>
    <style>
      .st0 {
        fill: #74aebb;
      }
    </style>
  </defs>
  <path class="st0" d="M121.9,23.8v108h-30.2V56.7l-21,75.1h-17.5L31.6,57.9v73.9h-10.5V23.8h31.8l18.5,65.2,18.4-65.2h32.1Z"/>
  <path class="st0" d="M178.7,133.4c-11.6,0-20.6-3.8-27.1-11.4-6.4-7.6-9.7-18.3-9.7-32.1s3.2-24.6,9.7-32.2c6.4-7.6,15.5-11.4,27.1-11.4s20.7,3.8,27.1,11.4c6.4,7.6,9.6,18.3,9.6,32.2s-3.2,24.5-9.6,32.1c-6.4,7.6-15.4,11.4-27.1,11.4ZM178.7,118.4c6.2,0,10.9-2.5,14.3-7.4,3.3-5,5-12,5-21s-1.7-16.1-5-21.1-8.1-7.4-14.3-7.4-10.9,2.5-14.3,7.4c-3.3,4.9-5,12-5,21.1s1.7,16.1,5,21c3.3,5,8.1,7.4,14.3,7.4Z"/>
  <path class="st0" d="M322.2,131.8c-5.6-.1-10.3-.2-14.1-.2s-9.3,0-15.4.2l.5-10c-2.1,2-3.8,3.6-5.4,4.9-1.5,1.2-3.5,2.4-5.9,3.6-2.4,1.2-5,2.1-7.8,2.7s-5.6.9-8.6.9c-5.1,0-9.8-.9-14.2-2.8-4.4-1.8-8.2-4.5-11.3-7.9-3.1-3.4-5.4-7.4-7-12.1-1.5-4.7-2.3-9.5-2.3-14.5,0-7.1,1.4-14.1,4.2-20.9,2.8-6.8,6.5-12.2,11-16.1,4.5-3.9,9.6-6.7,15.3-8.3s11.8-2.4,18.4-2.4,9.5.4,15.4,1.2c.4-6.3.7-15.1.9-26.3,6.5.1,11.8.2,15.9.2s10.7,0,16.1-.2c-1.5,15.7-2.9,34.8-4,57.3-1.2,22.6-1.7,39.4-1.7,50.6ZM294,70.7c-2.8-.6-5.4-.9-7.9-.9-5.1,0-9.5,1-13.1,3-3.6,2-6.4,5.1-8.3,9.3-1.9,4.2-2.9,8.3-2.9,12.4s.5,5.8,1.6,8.3c1.1,2.5,2.7,4.4,5,5.8,2.2,1.4,4.7,2.1,7.5,2.1s5.6-.8,8-2.5c2.4-1.6,4.4-4,5.9-7.2,1.5-3.2,2.5-6.9,3.1-11.3.6-4.4.9-10.7,1.1-18.9Z"/>
  <path class="st0" d="M351.6,94.9c-.2,2.7-.3,4.8-.3,6.4,0,7.5,2.2,13.8,6.6,19,4.4,5.2,9.9,7.8,16.4,7.8s12.2-2.5,17.7-7.6c1.6-1.4,2.6-2.1,3-2.1.8,0,1.3.7,1.3,2.1-2,3.7-5.4,6.8-10.3,9.3-4.9,2.5-10.3,3.8-16.2,3.8-8.8,0-16.2-3.2-22.2-9.5-6.1-6.3-9.1-14.3-9.1-23.9s3.3-19,10-25.9c6.7-6.9,13.8-10.4,21.4-10.4s13.6,2.7,19.3,8.1c5.7,5.4,8.6,11.7,8.6,19s-.2,1.9-.5,2.5-2.4.8-6.1.8l-39.6.6ZM351.6,90.8c6.9.3,13.5.5,20,.5l4.2-.2c3.2-.1,5.6-.7,7.3-1.9,1.7-1.1,2.5-3.1,2.5-6,0-4.4-1.5-8.3-4.6-11.6-3-3.3-6.6-4.9-10.7-4.9s-7.6,1.9-11.4,5.7c-3.8,3.8-6.2,9.9-7.3,18.5Z"/>
  <path class="st0" d="M485.1,114.6c0,7.4-.4,12.6-1.2,15.7-.4,1.5-1.3,2.3-2.8,2.3-3.9,0-9.8-.2-17.6-.7-7.8-.4-13.7-.7-17.6-.7s-9.2,0-16.5.2c-7.3.2-12.8.2-16.5.2s-2-.7-2-2c0-5.7.2-14.4.6-26,.4-11.6.6-20.3.6-26.1s-.3-15.3-.8-27.5c-.6-12.2-.8-21.4-.8-27.5s.7-1.7,2-1.7,2.4,0,4.4.2c2,.2,3.4.2,4.4.2s2.4,0,4.4-.2c2-.2,3.5-.2,4.4-.2s1.9.5,1.9,1.5c0,5.6-.2,14-.6,25.2-.4,11.2-.6,19.7-.6,25.3v12.5c0,5.6,0,9.8,0,12.5,0,11.7.5,17.6,1.4,17.6,19.5,0,34.1-.5,44.1-1.4.5,0,1.7-.2,3.6-.6,1.6-.3,2.8-.5,3.6-.5s1.7.5,1.7,1.5Z"/>
  <path class="st0" d="M512.1,131.8h-13V11.9h13v119.9Z"/>
  <path class="st0" d="M572.5,99.1l-.6.6-.2,1.7.6,1.6-.6,1.9.3,2.4c-1.3,2.8-2.6,4.7-4,5.7-.1,0-.5,0-1.2.2-.7.2-1.1.2-1.2.2s-1.3-.2-3.5-.5l-1.1-.6c-1.3.2-4.1-.2-8.5-1-4.4-.8-7.4-1.5-8.9-2.2l-2,.9c-.2.3-.7,1.7-1.5,4.2-.9,2.5-1.3,3.9-1.3,4.1,0,.5,0,1.2,0,2.1,0,.9,0,1.6,0,2.1l2.4,4.9c1.5.5,2.3.8,2.6.8s.3,0,.5,0,.3,0,.5,0l4.7.5c1.2-.3,2.6-.9,4.1-1.9,1.9-1.2,3.2-1.9,3.8-2.2l1.1-.2c1.2-.9,2.2-2,2.8-3.3l3.3-.9.6,1.7c-.3,1.3-3,4.6-8.2,9.8-1.7.8-4.2,1.4-7.4,1.7-3.5.3-5.9.7-7.4,1.2l-3.6-.6-.5-.5-2.8-.6c-2.7-1.8-5.2-4.9-7.6-9.2-.1-1.3-.4-2.8-.8-4.6.3-.9.6-2.9,1.1-5.9l.6-.6-.3-.5,1.1-1.1.6-2.4c.9-.6,1.6-1.7,2.2-3.5v-5.2l1.3-.5,1.1-4.1c3.8-4.5,7.9-7.4,12.3-8.7.3,0,.7,0,1.2,0,.5,0,.9,0,1.2,0,1.5-.4,2.3-.6,2.2-.6l1.9.8c.6-.1,1.5-.4,2.7-.8.8,0,2,.3,3.5.9,1.5.5,2.7.8,3.5.9l1.6,1.7,1.6.6.8,1.1,2.2.9,1.3,1.4c.3.6.5,1.5.8,2.8.3,1.3.5,2.2.8,2.8ZM563.5,101l-.6-.6c0-1.9,0-3.3-.2-4.3-.6-1.3-2.6-3.2-6-5.9-2,0-4.6.6-7.8,1.9l-.8,1.3-1.4.9-.6,1.4-.5.5v1.3l-.9.8c-.3.6-.6,1.7-.8,3.2h-.6l-.2,1.4.5,1.9c3.3,1.7,9.1,2.7,17.6,3.2.4-1.6,1-2.6,1.7-3l.6-4Z"/>
  <path class="st0" d="M635.7,124.5l-29.8-14.6c-7.6,10.4-11.8,17.2-12.7,20.6-.6,2.4-2,4.4-4.2,6-2.2,1.6-3.8,2.4-4.7,2.4-2.7,0-4-1-4-3.1s1.6-4.5,4.8-10c3.2-5.5,7.6-12,13.2-19.5-3.1-1.3-5-2.1-5.8-2.5-.7-.4-1-1.2-.9-2.4.2-1.2,1.1-3,2.8-5.6,1.5-2.2,2.6-3.7,3.3-4.5.7-.8,1.6-1.4,2.6-1.8,1-.4,2.1-.8,3.2-.9s4.2-.6,9.3-1.2c4.2-5.6,8.7-11.7,13.6-18.3,4.9-6.5,8.7-11.6,11.4-15.3-8.3,1.1-14.1,2-17.3,2.8-3.5.7-6.4,1.3-8.7,1.7-2.3.4-4,.8-4.9,1.2-.9.3-1.4.8-1.4,1.5s.6,1,1.7,1.2c1.2.2,2.6.3,4.4.3s3.1,0,4.1.2c1,.1,1.5.4,1.5.9s-.6.8-1.9.9c-1.3,0-4.9.2-10.9.5-3.4.1-6.2.2-8.5.3-2.3.1-3.9.2-4.8.2s-2.2-.4-2.8-1.1c-.7-.7-1-1.7-1-2.9s.5-2.6,1.5-5c1-2.4,2.4-4.9,4.3-7.4,1.8-2.5,4-4.4,6.3-5.8,2.7-1.6,6.9-3.3,12.5-4.9,5.7-1.7,12-3,18.9-4,6.9-1,13.8-1.5,20.6-1.5s8.1.2,12.1.7c3.9.5,7.5,1.1,10.7,1.7,3.2.7,5.7,1.4,7.6,2.1,4.8,1.6,8.5,4,11,7.2,2.6,3.2,3.8,6.8,3.8,10.6s-.6,7.4-1.9,11c-1.3,3.6-3.3,6.9-5.9,9.9-2.7,3-5.9,5.5-9.6,7.4-3.1,1.6-7.7,3.2-13.9,4.8-6.2,1.6-13.7,3.1-22.5,4.3-8.8,1.3-18.6,2.2-29.5,2.8,8.1,2.8,15.7,5.7,22.7,8.6,7,2.9,13,5.4,17.8,7.7,4.8,2.2,8.6,4.1,11.4,5.5,3.8,2,6.4,3.5,7.5,4.4,1.2.9,1.9,2.1,2.3,3.5.4,1.4.6,3.8.6,7s-.2,6.4-.7,8.2c-.4,1.8-1.4,2.7-2.9,2.7s-1.7-.5-3.8-1.5c-2-1-4.8-2.5-8.4-4.5-3.6-2-6.8-3.7-9.8-5.3-2.9-1.6-7.6-3.9-13.9-6.9ZM642.7,53.1c0,.4,0,.7.1,1,0,.3,0,.8,0,1.3,0,1.5-.5,3.2-1.4,5.1s-2.1,3.9-3.6,5.9c-1.5,2-3.6,4.9-6.5,8.7-2.9,3.8-5.5,7.2-8,10.4,11.1-2.1,20.5-4.1,28.4-6.1,7.8-2,14.3-3.9,19.3-5.9,5.1-2,8.9-4.1,11.4-6.2s3.8-4.5,3.8-6.8-2.7-4.7-8-6.2c-5.4-1.5-11.9-2.3-19.7-2.3s-3.3,0-5,.1c-1.8,0-3.9.2-6.3.5-2.5.2-4,.4-4.7.4Z"/>
</svg>