<?xml version="1.0" encoding="UTF-8"?>
<svg id="Layer_1" xmlns="http://www.w3.org/2000/svg" version="1.1" viewBox="0 0 907.1 155.9">
  <!-- Generator: Adobe Illustrator 29.8.3, SVG Export Plug-In . SVG Version: 2.1.1 Build 3)  -->
  <defs>
    <style>
      .st0 {
        fill: #5583ab;
      }
    </style>
  </defs>
  <path class="st0" d="M94.4,16.3v9.9h-26.3v88.8h-33V26.3H8.5v-9.9h85.8Z"/>
  <path class="st0" d="M107,115.1V3.4h18v111.6h-18ZM107,18.4V3.4h81.3v14.9h-81.3ZM107,66.6v-14.9h65.7v14.9h-65.7ZM107,115.1v-14.9h81.3v14.9h-81.3Z"/>
  <path class="st0" d="M210.2,124.8c6.8,2.3,12.7,3.9,17.8,4.8,5.1.9,9.6,1.4,13.4,1.4s5.3-.3,7.5-.9c2.3-.6,4.1-1.4,5.4-2.2,1.4-.9,2.5-2,3.5-3.4,1-1.4,1.7-2.9,2.2-4.6.5-1.7.9-3.6,1.1-5.8.2-2.2.4-5.2.5-9.1-2,1.8-3.8,3.3-5.3,4.4-1.5,1.1-3.3,2.2-5.5,3.2-2.2,1-4.6,1.8-7.2,2.4-2.6.6-5.3.8-8.2.8-6.7,0-12.7-1.5-18-4.6-5.3-3.1-9.3-7.4-11.9-13-2.6-5.6-3.9-11.6-3.9-18s1.4-14.5,4.2-20.6c2.8-6.1,6.9-11.3,12.1-15.6s11-7.2,17.3-8.8c6.3-1.6,13.4-2.4,21.4-2.4s9.7.3,15.5.8c5.8.5,13.7,1.7,23.8,3.6l-1.9,25.9-1.6,28.5c-.1,2-.2,3.7-.2,5l-.6,25.5c-.1,3.2-.5,6.3-1.2,9.3-.6,2.7-1.5,5.2-2.9,7.5-1.4,2.3-3,4.3-5,6.1-2.2,1.9-4.7,3.4-7.4,4.5-2.8,1.2-6.1,2.1-9.8,2.8-4.1.7-8.4,1.1-12.8,1.1s-5.6-.1-9.3-.4c-3.7-.2-7.4-.6-11.3-1.1-3.9-.5-7.2-1-10-1.5-2.8-.5-6.4-1.3-10.7-2.3l-.5-10.4c0-2-.3-6.3-.8-13ZM264.1,56.8c-3.2-.6-6.1-.9-8.7-.9-4.7,0-8.8.9-12.2,2.7-3.4,1.8-6.1,4.5-8,8.1s-2.8,7.3-2.8,11.2.5,5.5,1.5,7.9c1,2.4,2.6,4.3,4.9,5.7,2.3,1.4,4.7,2.1,7.3,2.1,3.8,0,7.1-1.4,10-4.1,2.9-2.7,4.9-6.5,6-11.2,1.1-4.7,1.7-11.9,1.9-21.5Z"/>
  <path class="st0" d="M331.4,47.8c1.4,3.1,2.3,8.3,2.6,15.6,3.7-5.1,7.7-9,12.2-11.6,4.5-2.6,9.3-3.9,14.6-3.9s7.9.7,11.7,2c3.8,1.3,6.7,3.6,8.7,6.9,2,3.3,3.1,8.8,3.1,16.7l-.5,26.5c0,4.9.5,7.9,1.4,9.1.9,1.2,2.9,2.2,5.9,2.9,2.1.5,3.1,1.1,3.1,1.7s-.5,1.2-1.5,1.2-.8,0-1.2,0c-2.7-.5-6.8-.7-12.1-.7s-9.9.2-15.5.5c-2.2,0-3.3-.4-3.3-1.3s.6-1,1.8-1.3c3.3-.6,5.4-1.3,6.4-2,1-.7,1.7-1.6,2.1-2.7.4-1.1.8-4.9,1-11.3.3-6.4.4-11.7.4-15.7,0-11-1.6-18.4-4.7-22.1-3.1-3.7-7-5.5-11.7-5.5-6.9,0-12.7,3.3-17.3,9.9-4.6,6.6-6.9,17.7-6.9,33.1s.5,11.5,1.6,13.4c1,1.9,3.6,3.1,7.8,3.5,1.3.1,2,.6,2,1.5s-.6,1.1-1.9,1.1l-4.6-.3c-1.7-.1-7.1-.2-16.4-.2l-7.1.2c-2.6,0-3.9-.4-3.9-1.3s1.4-1.6,4.2-2c2.7-.5,4.5-1.3,5.5-2.5.9-1.2,1.6-5.1,1.9-11.8.3-6.7.5-15,.5-25s-.7-15.1-2.1-17.3c-1.4-2.3-3.4-3.6-6-4.2-2.3-.5-3.5-1.1-3.5-2s.9-1.3,2.7-1.3h7.2c.8,0,4.8,0,12-.2Z"/>
  <path class="st0" d="M434.4,15.4c0,6.8-4.4,10.2-13.1,10.2s-13.3-3.4-13.3-10.2,1.4-5.6,4.1-7.6c2.6-1.9,5.6-2.8,9.2-2.8s6.7,1,9.3,2.9c2.6,1.9,3.9,4.4,3.9,7.5ZM433.8,38c0,4.3-.3,10.7-.9,19.4-.6,8.6-.9,15.1-.9,19.5s0,10.1.3,18.2c.2,8.1.3,14.1.3,18.1s-.6,1.8-1.7,1.8h-18.7c-1.3,0-2-1.1-2-3.4,0-3.8.1-9.6.3-17.3.2-7.7.3-13.5.3-17.4s-.4-10.8-1.1-19.5c-.7-8.7-1.1-15.2-1.1-19.5s.7-1.4,2-1.4,2.9.1,5.3.4c2.4.3,4.2.4,5.4.4s3-.1,5.4-.4c2.4-.3,4.2-.4,5.4-.4s1.6.5,1.6,1.6Z"/>
  <path class="st0" d="M529.9,34v81.1h-18.6l-37.4-67.3v61.9c0,1.5-.7,2.8-2,3.9-1.3,1.1-3,1.6-4.9,1.6s-3.6-.5-4.9-1.6c-1.3-1.1-2-2.4-2-3.9V28.4h18.3l37.5,67.2v-61.6c0-1.5.7-2.8,2.1-3.9,1.4-1.1,3.1-1.7,5-1.7s3.6.5,4.9,1.6c1.3,1.1,2,2.4,2,4Z"/>
  <path class="st0" d="M585.9,88.3c-2.9,0-5.6-.3-8.2-.8-2.6-.5-4.6-1-5.8-1.6-1.2.4-2.3,1.3-3.4,2.6-1.1,1.4-1.6,3.1-1.6,5.2s.6,3.5,1.8,5c1.2,1.5,2.5,2.5,4,2.9h26.8c6.6,0,11.8,1,15.6,3,3.8,2,6.6,4.5,8.2,7.4,1.6,3,2.5,6,2.5,9.1,0,5.7-1.8,10.7-5.4,15.1-3.6,4.4-8.5,7.8-14.7,10.3-6.2,2.5-13,3.7-20.6,3.7s-12.3-.8-17.5-2.3c-5.2-1.5-9.3-3.7-12.2-6.6-3-2.9-4.5-6.4-4.5-10.6s1.6-8.7,4.8-11.6c3.2-2.9,6.9-4.9,11.1-5.9v-.9c-1.7-.5-3.4-1.4-5.2-2.5-1.8-1.1-3.3-2.6-4.5-4.4-1.2-1.8-1.8-4-1.8-6.6s.7-5.5,2.1-7.6c1.4-2.1,3.1-3.7,5.2-5,2-1.2,4.1-2.1,6.1-2.5v-.8c-1.8-1-3.6-2.4-5.6-4.2-2-1.7-3.6-3.9-4.9-6.6-1.3-2.7-2-5.9-2-9.6s1.3-9.7,3.8-13.7c2.5-4,6.1-7.2,10.7-9.4,4.6-2.3,10-3.4,16.3-3.4s6.4.2,9.2.6c2.7.4,5.4.9,7.9,1.4h25.3l-.4,9-18.3-1.1v.6c2,2.4,3.5,4.7,4.7,7.1,1.2,2.3,1.8,5.4,1.8,9.2,0,7.3-2.7,13.3-8.1,18.1-5.4,4.8-13,7.3-22.8,7.3ZM588.2,142.3c4.1,0,8.1-.5,11.9-1.6s7-2.8,9.5-5.3c2.5-2.5,3.8-5.7,3.8-9.8s-1.2-5.3-3.5-7.9c-2.4-2.6-6.2-3.9-11.6-3.9h-24.8c-1.9.5-3.8,1.9-5.8,4-1.9,2.1-2.9,5.2-2.9,9.2s.8,5.5,2.4,7.5,3.6,3.6,6.1,4.7c2.5,1.1,5.1,1.9,7.7,2.4,2.7.5,5.1.7,7.2.7ZM586.1,81.7c3.4,0,6.3-.7,8.7-2.2,2.4-1.5,4.2-3.7,5.5-6.6,1.3-2.9,1.9-6.6,1.9-11.1,0-6.4-1.5-11.2-4.4-14.3s-6.8-4.7-11.6-4.7-5.2.6-7.5,1.9c-2.3,1.3-4.1,3.3-5.5,6.1-1.4,2.8-2.1,6.5-2.1,11.1,0,6.7,1.4,11.7,4.2,14.9,2.8,3.3,6.4,4.9,10.9,4.9Z"/>
  <path class="st0" d="M722,21.7h-52.6v27.2h48.4c3.6,0,6.2.8,8,2.3,1.8,1.5,2.6,3.6,2.6,6.1s-.9,4.6-2.6,6.2c-1.7,1.6-4.4,2.4-8,2.4h-48.4v31.5h54.4c3.7,0,6.4.8,8.3,2.5,1.9,1.6,2.8,3.8,2.8,6.5s-.9,4.7-2.8,6.4c-1.9,1.6-4.6,2.5-8.3,2.5h-63.4c-5.1,0-8.7-1.1-11-3.2-2.2-2.2-3.3-5.7-3.3-10.5V18.2c0-3.2.5-5.8,1.5-7.9,1-2,2.6-3.5,4.7-4.5,2.1-.9,4.8-1.4,8.1-1.4h61.6c3.7,0,6.5.8,8.3,2.4,1.8,1.6,2.7,3.7,2.7,6.2s-.9,4.7-2.7,6.3c-1.8,1.6-4.6,2.4-8.3,2.4Z"/>
  <path class="st0" d="M803,115.1h-11.5l-22.9-58,1.5-1.9h19.5V15.3h-28.1v99.8h-10.9V6.8h41.2c2.6,0,4.7.7,6.3,2.1,1.6,1.4,2.4,3.3,2.4,5.5v41.1c0,5.2-4,7.8-11.9,7.8s-1.9,0-3.5-.1-2.6-.1-3.3-.1c7.1,17.2,14.1,34.5,21.1,51.9Z"/>
</svg>